<?xml version="1.0" standalone="no"?>
<!DOCTYPE svg PUBLIC "-//W3C//DTD SVG 20010904//EN"
 "http://www.w3.org/TR/2001/REC-SVG-20010904/DTD/svg10.dtd">
<svg version="1.0" xmlns="http://www.w3.org/2000/svg"
 width="300.000000pt" height="300.000000pt" viewBox="0 0 300.000000 300.000000"
 preserveAspectRatio="xMidYMid meet">
<metadata>
Created by potrace 1.11, written by Peter Selinger 2001-2013
</metadata>
<g transform="translate(0.000000,300.000000) scale(0.100000,-0.100000)"
fill="#000000" stroke="none">
<path d="M378 2951 c-156 -50 -282 -176 -328 -330 -20 -65 -20 -89 -18 -1141
l3 -1075 23 -57 c51 -125 165 -239 290 -290 l57 -23 1095 0 1095 0 57 23 c125
51 239 165 290 290 l23 57 0 1095 0 1095 -23 57 c-51 125 -165 239 -290 290
l-57 23 -1080 2 c-1023 2 -1083 1 -1137 -16z m2259 -63 c126 -53 198 -125 251
-250 l27 -63 0 -1075 0 -1075 -27 -63 c-38 -90 -90 -155 -158 -201 -123 -82
-32 -76 -1235 -76 l-1070 0 -56 23 c-125 50 -214 141 -261 267 l-23 60 -3
1040 c-2 696 1 1056 8 1089 16 77 67 172 119 224 49 49 149 105 217 121 23 5
473 9 1094 8 l1055 -2 62 -27z"/>
<path d="M1000 2205 c-33 -23 -39 -24 -100 -14 -36 6 -108 9 -160 6 -289 -17
-481 -173 -526 -428 -22 -124 -4 -260 48 -363 27 -52 109 -138 169 -177 155
-99 415 -116 629 -40 l75 26 -4 161 -3 160 46 18 c44 17 47 20 44 50 l-3 31
-190 0 -190 0 -3 -32 c-3 -31 -2 -32 67 -53 l71 -21 0 -118 0 -119 -27 -11
c-80 -32 -190 -38 -278 -16 -161 42 -265 176 -283 367 -21 209 44 358 183 419
90 40 224 45 326 13 44 -14 48 -19 103 -119 46 -84 61 -105 79 -105 51 1 51 4
27 196 -12 99 -24 182 -27 187 -8 13 -38 6 -73 -18z"/>
<path d="M1380 1831 l-105 -6 -3 -32 c-3 -29 1 -33 52 -56 l56 -26 0 -204 c0
-210 5 -246 43 -301 56 -80 207 -88 315 -15 l42 28 0 -35 c0 -21 6 -37 14 -40
8 -3 61 7 118 23 97 26 103 30 106 56 2 19 -2 29 -15 33 -10 3 -33 12 -52 20
l-33 15 3 264 c3 168 0 267 -6 273 -6 5 -61 6 -125 3 l-115 -6 -3 -33 c-3 -31
0 -34 47 -55 l51 -21 0 -197 0 -197 -45 -17 c-59 -23 -161 -17 -181 10 -11 15
-14 72 -14 260 0 239 -4 269 -34 263 -6 -1 -58 -4 -116 -7z"/>
<path d="M2056 1814 c-30 -29 -19 -53 34 -77 l51 -22 124 -272 c69 -150 125
-278 125 -285 0 -15 -60 -170 -79 -207 -11 -19 -18 -22 -47 -17 -19 3 -49 9
-68 12 -71 12 -113 -78 -66 -139 47 -60 146 -55 208 10 48 52 62 82 228 513
l152 394 41 15 c34 12 41 20 41 41 0 45 -15 50 -140 50 -125 0 -140 -5 -140
-50 0 -22 7 -29 43 -41 l44 -14 -65 -177 c-36 -98 -68 -178 -71 -178 -6 0
-153 320 -159 345 -2 9 13 19 37 26 35 10 41 16 41 40 0 18 -7 32 -19 39 -11
5 -82 10 -160 10 -114 0 -142 -3 -155 -16z"/>
</g>
</svg>
