<svg width="640" height="384" viewBox="0 0 640 384" xmlns="http://www.w3.org/2000/svg"><title>a11y-logo</title><g fill="#000" fill-rule="evenodd"><path d="M147.433 119C106.877 119 74 151.907 74 192.5s32.877 73.5 73.433 73.5c40.556 0 73.433-32.907 73.433-73.5S187.989 119 147.433 119zm-1.108 14.596c5.264 0 9.521 4.261 9.521 9.487 0 5.268-4.257 9.529-9.52 9.529-5.221 0-9.478-4.26-9.478-9.53-.014-5.225 4.243-9.486 9.477-9.486zm41.146 30.705l-28.245 3.57.014 28.3 13.692 45.732c.719 2.893-1.007 5.772-3.87 6.492-2.847.72-5.766-.864-6.485-3.743l-14.022-41.63h-4.315l-12.9 42.494c-1.079 2.778-4.17 4.045-6.932 2.965-2.747-1.065-4.415-4.188-3.337-6.967l11.85-44.883v-28.76l-26.03-3.542c-2.675-.216-4.487-2.562-4.271-5.24.2-2.691 2.631-4.692 5.292-4.476l31.625 2.72h13.864l33.668-2.778c2.675-.1 4.947 1.972 5.033 4.679.115 2.663-1.956 4.951-4.63 5.067z" fill-rule="nonzero"/><path d="M299.088 190.95l-3.28 11.507h23.812l-3.28-11.508a395.833 395.833 0 0 1-4.348-15.392 3984.688 3984.688 0 0 1-4.064-15.68h-.57a7471.033 7471.033 0 0 1-3.993 15.752 340.665 340.665 0 0 1-4.277 15.32zm-31.225 50.06l30.37-94.08h19.39l30.37 94.08h-17.395l-7.271-25.462h-31.368l-7.272 25.462h-16.824zm90.396 0v-13.522h20.247v-60.13h-16.682V157c4.562-.863 8.483-1.894 11.763-3.093a52.534 52.534 0 0 0 9.196-4.388h12.262v77.969h17.823v13.522h-54.609zm73.144 0v-13.522h20.247v-60.13h-16.682V157c4.562-.863 8.483-1.894 11.763-3.093a52.534 52.534 0 0 0 9.196-4.388h12.262v77.969h17.823v13.522h-54.609zm89.97 0v-34.956l-27.947-59.124h17.68l10.124 24.023a467.627 467.627 0 0 0 3.992 10.286 872.384 872.384 0 0 0 4.277 10.43h.57a983.65 983.65 0 0 1 4.42-10.43 230.613 230.613 0 0 0 4.135-10.286l10.124-24.023H566l-28.088 59.124v34.956h-16.54z"/></g></svg>