<svg width="640" height="384" viewBox="0 0 640 384" xmlns="http://www.w3.org/2000/svg"><title>Brackets Logo</title><defs><linearGradient x1="50%" y1="0%" x2="50%" y2="100%" id="a"><stop stop-color="#29ABE2" offset="0%"/><stop stop-color="#28A9E1" offset="47.57%"/><stop stop-color="#23A2DC" offset="66.39%"/><stop stop-color="#1A96D4" offset="80.12%"/><stop stop-color="#0E85C9" offset="91.3%"/><stop stop-color="#0071BC" offset="100%"/></linearGradient></defs><g fill="none" fill-rule="evenodd"><g fill-rule="nonzero"><path d="M418 203.6c0 22.22-18.18 40.4-40.4 40.4H256.4c-22.22 0-40.4-18.18-40.4-40.4V82.4c0-22.22 18.18-40.4 40.4-40.4h121.2c22.22 0 40.4 18.18 40.4 40.4v121.2z" fill="#115A91"/><path d="M377.77 64C387.821 64 396 72.134 396 82.132v100.736c0 9.998-8.178 18.132-18.23 18.132H256.23c-10.052 0-18.23-8.134-18.23-18.132V82.132C238 72.134 246.178 64 256.23 64h121.54" fill="#FFF"/><path d="M161.6 22.244c10.025 0 18.18 8.164 18.18 18.2v101.112c0 10.036-8.155 18.2-18.18 18.2H40.4c-10.025 0-18.18-8.164-18.18-18.2V40.444c0-10.036 8.155-18.2 18.18-18.2h121.2zM161.6 0H40.4C18.18 0 0 18.2 0 40.444v101.112C0 163.8 18.18 182 40.4 182h121.2c22.22 0 40.4-18.2 40.4-40.444V40.444C202 18.2 183.82 0 161.6 0z" fill="url(#a)" transform="translate(216 42)"/><path d="M373.747 84.6v97.115H323.08v-24.278h28.373v-50.58H323.08V84.6h50.667zm-62.827 0v22.256h-28.373v50.58h28.373v24.28h-50.667V84.6h50.667z" fill="#4D4D4D"/></g><path d="M149.15 341v-64.944h19.305c3.3 0 6.32.297 9.059.891 2.739.594 5.081 1.518 7.029 2.772a13.241 13.241 0 0 1 4.554 4.9c1.089 2.014 1.633 4.439 1.633 7.277 0 3.234-.808 6.154-2.425 8.762-1.618 2.607-3.977 4.405-7.079 5.395v.396c3.96.726 7.161 2.376 9.603 4.95 2.442 2.574 3.663 6.105 3.663 10.593 0 3.168-.594 5.94-1.782 8.316-1.188 2.376-2.871 4.356-5.049 5.94-2.178 1.584-4.785 2.772-7.821 3.564-3.036.792-6.369 1.188-9.999 1.188H149.15zm8.217-37.323h9.603c5.544 0 9.537-.957 11.979-2.871 2.442-1.914 3.663-4.521 3.663-7.821 0-3.762-1.27-6.435-3.811-8.019-2.542-1.584-6.353-2.376-11.435-2.376h-9.999v21.087zm0 30.789h11.286c5.61 0 9.966-1.04 13.068-3.118 3.102-2.08 4.653-5.297 4.653-9.653 0-4.026-1.518-6.98-4.554-8.86-3.036-1.882-7.425-2.822-13.167-2.822h-11.286v24.453zM206.57 341v-48.114h6.732l.693 8.712h.297c1.65-3.036 3.646-5.445 5.99-7.227 2.343-1.782 4.9-2.673 7.672-2.673 1.914 0 3.63.33 5.148.99l-1.584 7.128a18.307 18.307 0 0 0-2.178-.594c-.66-.132-1.485-.198-2.475-.198-2.046 0-4.174.825-6.385 2.475-2.212 1.65-4.142 4.521-5.792 8.613V341h-8.118zm43.065 1.188c-4.026 0-7.375-1.188-10.048-3.564-2.674-2.376-4.01-5.742-4.01-10.098 0-5.28 2.343-9.322 7.029-12.127 4.686-2.806 12.177-4.769 22.473-5.891 0-1.518-.148-3.003-.445-4.455-.298-1.452-.809-2.739-1.535-3.861-.726-1.122-1.732-2.03-3.02-2.723-1.287-.693-2.92-1.039-4.9-1.039-2.772 0-5.379.528-7.821 1.584s-4.62 2.244-6.534 3.564l-3.168-5.643c2.244-1.452 4.983-2.854 8.217-4.208 3.234-1.353 6.798-2.029 10.692-2.029 5.874 0 10.131 1.798 12.771 5.395 2.64 3.598 3.96 8.399 3.96 14.405V341h-6.732l-.693-5.742h-.297a40.71 40.71 0 0 1-7.425 4.9c-2.64 1.354-5.478 2.03-8.514 2.03zm2.376-6.534c2.31 0 4.488-.544 6.534-1.633 2.046-1.09 4.224-2.69 6.534-4.802v-13.365c-4.026.528-7.408 1.155-10.147 1.881-2.74.726-4.95 1.584-6.633 2.574-1.684.99-2.904 2.128-3.663 3.415a8.135 8.135 0 0 0-1.139 4.208c0 2.772.825 4.752 2.475 5.94 1.65 1.188 3.663 1.782 6.039 1.782zm55.44 6.534c-3.168 0-6.138-.561-8.91-1.683-2.772-1.122-5.164-2.755-7.177-4.9-2.014-2.146-3.597-4.785-4.752-7.92-1.156-3.136-1.733-6.683-1.733-10.643 0-4.026.627-7.606 1.881-10.741 1.254-3.136 2.937-5.792 5.049-7.97a21.06 21.06 0 0 1 7.376-4.95c2.805-1.122 5.758-1.683 8.86-1.683 3.168 0 5.874.561 8.118 1.683 2.244 1.122 4.224 2.442 5.94 3.96l-4.158 5.346c-1.386-1.254-2.854-2.277-4.405-3.069-1.552-.792-3.284-1.188-5.198-1.188-2.178 0-4.191.445-6.039 1.337-1.848.89-3.432 2.161-4.752 3.811-1.32 1.65-2.36 3.613-3.118 5.89-.76 2.278-1.139 4.802-1.139 7.574 0 2.772.363 5.28 1.089 7.524.726 2.244 1.732 4.174 3.02 5.792a13.35 13.35 0 0 0 4.702 3.762c1.848.89 3.861 1.336 6.039 1.336 2.244 0 4.306-.478 6.188-1.435a25.017 25.017 0 0 0 5.098-3.416l3.564 5.445a25.77 25.77 0 0 1-7.227 4.505 21.596 21.596 0 0 1-8.316 1.633zM333.587 341v-70.488h8.019v47.718h.297l20.493-25.344h9.009l-16.137 19.305L373.583 341h-8.91l-14.058-23.166-9.009 10.494V341h-8.019zm66.726 1.188c-3.234 0-6.253-.577-9.058-1.733a21.47 21.47 0 0 1-7.326-4.95c-2.08-2.145-3.713-4.768-4.901-7.87-1.188-3.102-1.782-6.633-1.782-10.593s.61-7.507 1.831-10.642c1.222-3.136 2.838-5.792 4.852-7.97 2.013-2.178 4.306-3.844 6.88-5a19.382 19.382 0 0 1 8.019-1.732c3.036 0 5.758.528 8.167 1.584 2.41 1.056 4.422 2.574 6.04 4.554 1.617 1.98 2.854 4.356 3.712 7.128.858 2.772 1.287 5.874 1.287 9.306 0 .858-.017 1.7-.05 2.525-.032.825-.115 1.534-.247 2.128h-32.472c.33 5.148 1.93 9.223 4.802 12.226 2.87 3.004 6.616 4.505 11.236 4.505 2.31 0 4.438-.346 6.385-1.04a28.254 28.254 0 0 0 5.594-2.722l2.871 5.346c-2.112 1.32-4.455 2.475-7.029 3.465-2.574.99-5.511 1.485-8.811 1.485zm-15.147-29.106h25.74c0-4.884-1.04-8.596-3.118-11.137-2.08-2.542-5-3.812-8.762-3.812-1.716 0-3.35.33-4.9.99-1.552.66-2.954 1.633-4.208 2.92-1.254 1.288-2.293 2.855-3.119 4.703-.825 1.848-1.369 3.96-1.633 6.336zm58.905 29.106c-2.574 0-4.735-.396-6.485-1.188-1.749-.792-3.167-1.881-4.257-3.267-1.089-1.386-1.864-3.069-2.326-5.049-.462-1.98-.693-4.158-.693-6.534v-26.631h-7.128v-6.138l7.524-.495.99-13.464h6.831v13.464h12.969v6.633h-12.969v26.73c0 2.97.544 5.263 1.634 6.88 1.089 1.618 3.019 2.426 5.791 2.426.858 0 1.782-.132 2.772-.396.99-.264 1.881-.561 2.673-.891l1.584 6.138a42.09 42.09 0 0 1-4.306 1.238 20.15 20.15 0 0 1-4.604.544zm29.898 0c-3.432 0-6.699-.627-9.801-1.881-3.102-1.254-5.808-2.838-8.118-4.752l4.059-5.445c2.112 1.716 4.273 3.102 6.485 4.158 2.21 1.056 4.768 1.584 7.672 1.584 3.168 0 5.544-.726 7.128-2.178 1.584-1.452 2.376-3.234 2.376-5.346 0-1.254-.33-2.343-.99-3.267-.66-.924-1.501-1.732-2.524-2.425-1.024-.694-2.195-1.304-3.515-1.832l-3.96-1.584a66.518 66.518 0 0 1-5.148-2.03c-1.716-.759-3.25-1.682-4.603-2.772a14.024 14.024 0 0 1-3.317-3.811c-.858-1.452-1.287-3.201-1.287-5.247 0-1.914.38-3.712 1.139-5.396a12.424 12.424 0 0 1 3.267-4.356c1.419-1.22 3.151-2.177 5.197-2.87 2.046-.694 4.356-1.04 6.93-1.04 3.036 0 5.824.528 8.365 1.584 2.542 1.056 4.736 2.343 6.584 3.861l-3.861 5.148a25.862 25.862 0 0 0-5.148-3.069c-1.782-.792-3.729-1.188-5.841-1.188-3.036 0-5.263.693-6.683 2.079-1.419 1.386-2.128 3.003-2.128 4.851 0 1.122.297 2.095.891 2.92.594.826 1.386 1.551 2.376 2.178.99.628 2.128 1.188 3.416 1.683 1.287.496 2.623 1.007 4.009 1.535a213.04 213.04 0 0 1 5.197 2.079c1.75.726 3.317 1.633 4.703 2.722a13.382 13.382 0 0 1 3.416 4.01c.89 1.584 1.336 3.498 1.336 5.742 0 1.98-.38 3.828-1.139 5.544-.759 1.716-1.88 3.234-3.365 4.554-1.486 1.32-3.333 2.36-5.544 3.118-2.212.76-4.736 1.139-7.574 1.139z" fill="#000"/></g></svg>