<?xml version="1.0" encoding="utf-8"?>
<svg viewBox="43 47.28 118.51 45.207" width="118.51" height="45.207" xmlns="http://www.w3.org/2000/svg">
  <defs>
    <style>.cls-1{fill:#afb0b0;}</style>
  </defs>
  <path class="cls-1" d="M103.65,58.6a5.38,5.38,0,0,0-2.38.64V66.6a15.51,15.51,0,0,0,1.72.06c2.33,0,2.65-1.07,2.65-2.56V60.59c0-1.1-.37-2-2-2Zm-15.5-.4c-1.62,0-2,.89-2,2v.62h4v-.62C90.13,59.09,89.76,58.2,88.14,58.2Zm-30,7.65a1.16,1.16,0,0,0,1.32,1.32,4.83,4.83,0,0,0,2.26-.64V64.79H59.56c-1,0-1.45.19-1.45,1.06Zm60.61-7.25c-1.62,0-2.18.89-2.18,2v4c0,1.1.56,2,2.18,2s2.18-.89,2.18-2v-4C120.91,59.49,120.34,58.6,118.73,58.6ZM50.16,70.36H45.39V58.82H43v-4h2.38V52.45c0-3.25,1.34-5.17,5.17-5.17h3.18v4h-2c-1.49,0-1.59.56-1.59,1.59v2h3.6l-.42,4H50.16V70.36Zm16.3,0h-4l-.17-1a9.11,9.11,0,0,1-4.5,1.17c-2.91,0-4.47-1.95-4.47-4.64,0-3.18,1.81-4.31,5-4.31h3.3v-.69c0-1.62-.19-2.1-2.68-2.1H54.93l.4-4h4.46c5.47,0,6.67,1.73,6.67,6.11v9.44ZM80,59.11a22.75,22.75,0,0,0-4.37-.52c-2.14,0-2.78.47-2.78,2.29v3.43c0,1.82.65,2.29,2.78,2.29A22.7,22.7,0,0,0,80,66.08V70a21.08,21.08,0,0,1-4.77.61C70.08,70.58,68,67.88,68,64V61.21c0-3.89,2-6.59,7.15-6.59a21,21,0,0,1,4.77.62v3.88ZM94.9,64H86.15v.32c0,1.82.65,2.29,2.78,2.29a27.8,27.8,0,0,0,5.56-.52V70a25.07,25.07,0,0,1-6,.61c-5.12,0-7.16-2.69-7.16-6.58V60.81c0-3.4,1.51-6.19,6.76-6.19s6.76,2.76,6.76,6.19Zm15.5.07c0,3.76-1.07,6.5-7.58,6.5A36,36,0,0,1,96.49,70V48.47l4.77-.8V55.2a10.82,10.82,0,0,1,3.58-.58c4.77,0,5.56,2.14,5.56,5.57v3.88Zm15.28.08c0,3.24-1.34,6.39-6.94,6.39s-7-3.15-7-6.39V61c0-3.24,1.36-6.39,7-6.39s6.94,3.15,6.94,6.39v3.13Zm15.27,0c0,3.24-1.34,6.39-6.94,6.39s-7-3.15-7-6.39V61c0-3.24,1.36-6.39,7-6.39S141,57.77,141,61v3.13Zm15.67,6.21h-5.17l-4.37-7.3v7.3h-4.77V48.47l4.77-.8V61.77l4.37-6.93h5.17l-4.77,7.56ZM134,58.6c-1.62,0-2.18.89-2.18,2v4c0,1.1.56,2,2.18,2s2.19-.89,2.19-2v-4c0-1.1-.57-2-2.19-2Zm25.35,9a1.48,1.48,0,1,1-1.46,1.47,1.45,1.45,0,0,1,1.46-1.47Zm0,.23a1.25,1.25,0,0,0,0,2.49,1.25,1.25,0,0,0,0-2.49Zm-.27,2.1h-.26V68.33a3,3,0,0,1,.46,0,.87.87,0,0,1,.51.12.4.4,0,0,1,.15.34.41.41,0,0,1-.32.4h0c.14,0,.24.16.27.4a1.37,1.37,0,0,0,.1.41h-.27a1.24,1.24,0,0,1-.11-.42.31.31,0,0,0-.35-.29h-.18V70Zm0-.91h.19c.21,0,.4-.08.4-.28s-.1-.29-.4-.29h-.19v.56Z" style="fill: rgb(24, 119, 242);"/>
  <path class="cls-1" d="M45,92.21v-10H43.35V80.57H45V80a5.49,5.49,0,0,1,1.35-4.07,4.05,4.05,0,0,1,2.84-1.08,4.92,4.92,0,0,1,1.8.34l-.29,1.64a3.16,3.16,0,0,0-1.35-.26c-1.8,0-2.26,1.59-2.26,3.37v.63h2.82v1.61H47.08v10Z"/>
  <path class="cls-1" d="M62,86.29c0,4.31-3,6.18-5.8,6.18-3.15,0-5.58-2.31-5.58-6,0-3.9,2.55-6.18,5.78-6.18S62,82.73,62,86.29Zm-9.24.12c0,2.55,1.47,4.48,3.54,4.48s3.54-1.9,3.54-4.52c0-2-1-4.48-3.49-4.48S52.78,84.2,52.78,86.42Z"/>
  <path class="cls-1" d="M64.69,84.2c0-1.37,0-2.55-.1-3.63h1.85l.07,2.29h.1a3.49,3.49,0,0,1,3.22-2.55,2.3,2.3,0,0,1,.6.07v2a3.2,3.2,0,0,0-.72-.07A3,3,0,0,0,66.88,85a6,6,0,0,0-.1,1v6.21H64.69Z"/>
  <path class="cls-1" d="M77.57,92.21c0-.79.1-2,.1-3V75.13h2.09v7.32h0a4.34,4.34,0,0,1,4-2.14c2.89,0,4.93,2.41,4.91,5.94,0,4.16-2.62,6.23-5.22,6.23a4.15,4.15,0,0,1-3.9-2.19H79.5l-.1,1.92Zm2.19-4.67a4,4,0,0,0,.1.77A3.27,3.27,0,0,0,83,90.79c2.21,0,3.54-1.8,3.54-4.48,0-2.33-1.2-4.33-3.46-4.33a3.37,3.37,0,0,0-3.22,2.6,4.12,4.12,0,0,0-.12.87Z"/>
  <path class="cls-1" d="M101.11,89c0,1.2,0,2.26.1,3.18H99.33l-.12-1.9h0a4.38,4.38,0,0,1-3.85,2.17c-1.83,0-4-1-4-5.1V80.57h2.12V87c0,2.21.67,3.71,2.6,3.71A3.06,3.06,0,0,0,98.8,88.8,3.1,3.1,0,0,0,99,87.71V80.57h2.12Z"/>
  <path class="cls-1" d="M104.33,90a5.55,5.55,0,0,0,2.79.84c1.54,0,2.26-.77,2.26-1.73s-.6-1.56-2.17-2.14c-2.09-.75-3.08-1.9-3.08-3.3,0-1.88,1.52-3.42,4-3.42A5.82,5.82,0,0,1,111,81l-.53,1.54a4.53,4.53,0,0,0-2.38-.67c-1.25,0-1.95.72-1.95,1.59s.7,1.4,2.21,2c2,.77,3.06,1.78,3.06,3.51,0,2-1.59,3.49-4.36,3.49a6.64,6.64,0,0,1-3.27-.79Z"/>
  <path class="cls-1" d="M116.51,77.3a1.31,1.31,0,0,1-2.62,0A1.29,1.29,0,0,1,115.21,76,1.26,1.26,0,0,1,116.51,77.3Zm-2.36,14.92V80.57h2.12V92.21Z"/>
  <path class="cls-1" d="M119.78,83.72c0-1.2,0-2.19-.1-3.15h1.88l.12,1.92h0a4.28,4.28,0,0,1,3.85-2.19c1.61,0,4.12,1,4.12,5v7h-2.12V85.5c0-1.88-.7-3.44-2.69-3.44a3.1,3.1,0,0,0-3,3.15v7h-2.12Z"/>
  <path class="cls-1" d="M134.32,86.78a3.73,3.73,0,0,0,4,4,7.65,7.65,0,0,0,3.22-.6l.36,1.52a9.43,9.43,0,0,1-3.87.72c-3.59,0-5.73-2.36-5.73-5.87s2.07-6.28,5.46-6.28c3.8,0,4.81,3.34,4.81,5.49a7.92,7.92,0,0,1-.07,1Zm6.21-1.52c0-1.35-.55-3.44-2.94-3.44-2.14,0-3.08,2-3.25,3.44Z"/>
  <path class="cls-1" d="M144.91,90a5.55,5.55,0,0,0,2.79.84c1.54,0,2.26-.77,2.26-1.73s-.6-1.56-2.17-2.14c-2.09-.75-3.08-1.9-3.08-3.3,0-1.88,1.52-3.42,4-3.42a5.82,5.82,0,0,1,2.86.72l-.53,1.54a4.53,4.53,0,0,0-2.38-.67c-1.25,0-1.95.72-1.95,1.59s.7,1.4,2.21,2c2,.77,3.06,1.78,3.06,3.51,0,2-1.59,3.49-4.36,3.49a6.64,6.64,0,0,1-3.27-.79Z"/>
  <path class="cls-1" d="M154.44,90a5.55,5.55,0,0,0,2.79.84c1.54,0,2.26-.77,2.26-1.73s-.6-1.56-2.17-2.14c-2.09-.75-3.08-1.9-3.08-3.3,0-1.88,1.52-3.42,4-3.42a5.82,5.82,0,0,1,2.86.72l-.53,1.54a4.53,4.53,0,0,0-2.38-.67c-1.25,0-1.95.72-1.95,1.59s.7,1.4,2.21,2c2,.77,3.06,1.78,3.06,3.51,0,2-1.59,3.49-4.36,3.49a6.64,6.64,0,0,1-3.27-.79Z"/>
</svg>