<svg width="640" height="384" viewBox="0 0 640 384" xmlns="http://www.w3.org/2000/svg"><title>git-logo</title><g fill-rule="nonzero" fill="none"><path d="M372.48 156.756c-11.582 0-20.207 5.667-20.207 19.306 0 10.276 5.685 17.41 19.584 17.41 11.78 0 19.78-6.917 19.78-17.834 0-12.372-7.16-18.881-19.157-18.881v-.001zm-23.164 96.3c-2.74 3.351-5.471 6.913-5.471 11.116 0 8.384 10.73 10.908 25.47 10.908 12.21 0 28.843-.853 28.843-12.165 0-6.724-8.002-7.14-18.113-7.772l-30.73-2.087h.001zm62.313-95.666c3.784 4.827 7.79 11.541 7.79 21.19 0 23.285-18.317 36.92-44.836 36.92-6.744 0-12.849-.837-16.634-1.884l-6.95 11.116 20.629 1.256c36.423 2.312 57.889 3.363 57.889 31.254 0 24.13-21.257 37.758-57.89 37.758-38.102 0-52.627-9.651-52.627-26.221 0-9.444 4.211-14.467 11.58-21.4-6.95-2.928-9.262-8.17-9.262-13.836 0-4.618 2.312-8.812 6.107-12.8 3.788-3.983 7.997-7.974 13.05-12.588-10.314-5.033-18.105-15.942-18.105-31.468 0-24.12 16.001-40.687 48.204-40.687 9.054 0 14.53.83 19.372 2.097H431v17.826l-19.37 1.47v-.003h-.001zm56.532-37.91c-12.002 0-18.946-6.954-18.946-18.959 0-11.99 6.944-18.521 18.946-18.521 12.21 0 19.156 6.531 19.156 18.521 0 12.005-6.946 18.959-19.156 18.959zm-27.16 126.518v-16.623l10.74-1.47c2.948-.427 3.367-1.053 3.367-4.219v-61.895c0-2.31-.63-3.791-2.74-4.418l-11.366-4.003 2.314-17.047h43.578v87.365c0 3.375.203 3.792 3.37 4.22L501 229.375V246h-60l.002-.002h-.001zM584 237.596c-9.029 4.41-22.247 8.404-34.215 8.404-24.971 0-34.412-10.08-34.412-33.845v-55.072c0-1.258 0-2.103-1.686-2.103H499v-18.708c18.473-2.108 25.813-11.36 28.122-34.272h19.939v29.86c0 1.467 0 2.102 1.68 2.102h29.588v21.018h-31.268v50.239c0 12.404 2.942 17.235 14.268 17.235 5.883 0 11.962-1.467 17-3.36L584 237.597v-.001z" fill="#413000"/><path d="M272.852 182.201l-96.06-96.052c-5.527-5.532-14.498-5.532-20.032 0l-19.946 19.949 25.3 25.301c5.882-1.986 12.624-.654 17.31 4.033 4.71 4.717 6.033 11.516 3.997 17.418l24.385 24.386c5.9-2.033 12.706-.72 17.417 4 6.586 6.584 6.586 17.254 0 23.84-6.587 6.588-17.256 6.588-23.846 0-4.952-4.956-6.177-12.233-3.669-18.335l-22.742-22.743-.002 59.848a17.003 17.003 0 0 1 4.46 3.188c6.583 6.584 6.583 17.25 0 23.845-6.587 6.584-17.26 6.584-23.84 0-6.585-6.594-6.585-17.26 0-23.845a16.87 16.87 0 0 1 5.52-3.678v-60.404a16.634 16.634 0 0 1-5.52-3.679c-4.989-4.984-6.19-12.305-3.632-18.43l-24.941-24.947-65.86 65.861c-5.534 5.537-5.534 14.509 0 20.042l96.053 96.052c5.53 5.532 14.5 5.532 20.037 0l95.61-95.599c5.532-5.535 5.532-14.51 0-20.043" fill="#F05133"/></g></svg>