<svg width="640" height="384" viewBox="0 0 640 384" xmlns="http://www.w3.org/2000/svg"><title>Github Mac Logo</title><defs><linearGradient x1="50%" y1="0%" x2="50%" y2="100%" id="a"><stop stop-color="#FEFEFE" offset="0%"/><stop stop-color="#E0E0E0" offset="100%"/></linearGradient><linearGradient x1="50%" y1="100%" x2="50%" y2="0%" id="b"><stop stop-color="#492779" offset="0%"/><stop stop-color="#892793" offset="100%"/></linearGradient></defs><g fill="none" fill-rule="evenodd"><circle fill="#000" fill-rule="nonzero" cx="320" cy="144" r="112"/><circle stroke-opacity=".5" stroke="#BABABA" stroke-width="4" cx="320" cy="144" r="112"/><circle fill="url(#a)" fill-rule="nonzero" cx="320" cy="144" r="112"/><path d="M216 144.068c0 46.05 29.77 84.944 71.11 98.734 5.2.912 7.15-2.21 7.15-4.94 0-2.474-.13-10.668-.13-19.384-26.13 4.81-32.89-6.378-34.97-12.23-1.17-2.992-6.24-12.228-10.66-14.7-3.64-1.952-8.84-6.764-.13-6.894 8.19-.13 14.04 7.544 15.99 10.666 9.36 15.74 24.31 11.32 30.29 8.586.91-6.764 3.64-11.32 6.63-13.92-23.14-2.6-47.32-11.576-47.32-51.38 0-11.32 4.03-20.686 10.66-27.97-1.04-2.6-4.68-13.268 1.04-27.58 0 0 8.71-2.73 28.6 10.668 8.32-2.34 17.16-3.512 26-3.512s17.68 1.172 26 3.512c19.89-13.528 28.6-10.666 28.6-10.666 5.72 14.308 2.08 24.974 1.04 27.576 6.63 7.284 10.66 16.52 10.66 27.968 0 39.936-24.31 48.78-47.45 51.384 3.77 3.252 7.02 9.496 7.02 19.252 0 13.92-.13 25.106-.13 28.62 0 2.73 1.95 5.98 7.15 4.94C394.23 229.014 424 189.99 424 144.07 424 86.568 377.46 40 320 40S216 86.57 216 144.068z" fill="url(#b)" fill-rule="nonzero"/><path d="M140.632 342.346l2.15 7.654h5.16v-32.336h-26.918v6.88h19.608c.115 2.81-.258 5.432-1.118 7.869-.86 2.437-2.136 4.558-3.827 6.364-1.691 1.806-3.77 3.225-6.235 4.257-2.465 1.032-5.303 1.548-8.514 1.548-3.44 0-6.464-.674-9.073-2.021s-4.802-3.153-6.579-5.418c-1.777-2.265-3.125-4.873-4.042-7.826-.917-2.953-1.376-6.034-1.376-9.245 0-3.268.401-6.464 1.204-9.589.803-3.125 2.05-5.905 3.741-8.342 1.691-2.437 3.87-4.4 6.536-5.891 2.666-1.49 5.862-2.236 9.589-2.236 2.293 0 4.458.272 6.493.817 2.035.545 3.856 1.362 5.461 2.451 1.605 1.09 2.953 2.48 4.042 4.171 1.09 1.691 1.835 3.712 2.236 6.063h8.17c-.573-3.612-1.648-6.694-3.225-9.245-1.577-2.551-3.526-4.658-5.848-6.321-2.322-1.663-4.96-2.881-7.912-3.655-2.953-.774-6.092-1.161-9.417-1.161-4.873 0-9.13.903-12.771 2.709-3.64 1.806-6.68 4.228-9.116 7.267-2.437 3.039-4.271 6.579-5.504 10.621-1.233 4.042-1.849 8.299-1.849 12.771 0 4.013.66 7.883 1.978 11.61 1.319 3.727 3.24 7.023 5.762 9.89 2.523 2.867 5.59 5.146 9.202 6.837 3.612 1.691 7.711 2.537 12.298 2.537 3.612 0 7.195-.702 10.75-2.107 3.555-1.405 6.536-3.712 8.944-6.923zm25.886-44.806v-8.944h-7.31v8.944h7.31zm-7.31 7.998V350h7.31v-44.462h-7.31zm28.81 0v-13.33h-7.31v13.33h-7.568v6.45h7.568v28.294c0 2.064.2 3.727.602 4.988.401 1.261 1.018 2.236 1.849 2.924.831.688 1.92 1.161 3.268 1.419 1.347.258 2.967.387 4.859.387h5.59v-6.45h-3.354c-1.147 0-2.078-.043-2.795-.129-.717-.086-1.276-.272-1.677-.559-.401-.287-.674-.688-.817-1.204-.143-.516-.215-1.204-.215-2.064v-27.606h8.858v-6.45h-8.858zm18.146-16.942V350h8.17v-28.122h32.336V350h8.17v-61.404h-8.17v26.402h-32.336v-26.402h-8.17zM303.86 350v-44.462h-7.31v25.112c0 2.007-.272 3.856-.817 5.547-.545 1.691-1.362 3.168-2.451 4.429-1.09 1.261-2.451 2.236-4.085 2.924-1.634.688-3.569 1.032-5.805 1.032-2.81 0-5.017-.803-6.622-2.408-1.605-1.605-2.408-3.784-2.408-6.536v-30.1h-7.31v29.24c0 2.408.244 4.601.731 6.579.487 1.978 1.333 3.684 2.537 5.117 1.204 1.433 2.78 2.537 4.73 3.311 1.95.774 4.386 1.161 7.31 1.161 3.268 0 6.106-.645 8.514-1.935 2.408-1.29 4.386-3.311 5.934-6.063h.172V350h6.88zm11.266-61.404h7.31v22.962h.172c1.204-2.465 3.096-4.257 5.676-5.375 2.58-1.118 5.418-1.677 8.514-1.677 3.44 0 6.436.63 8.987 1.892 2.551 1.261 4.673 2.967 6.364 5.117 1.691 2.15 2.967 4.63 3.827 7.439.86 2.81 1.29 5.79 1.29 8.944 0 3.153-.416 6.135-1.247 8.944-.831 2.81-2.093 5.26-3.784 7.353-1.691 2.093-3.813 3.741-6.364 4.945-2.551 1.204-5.518 1.806-8.901 1.806-1.09 0-2.308-.115-3.655-.344a20.303 20.303 0 0 1-3.999-1.118 15.627 15.627 0 0 1-3.741-2.107 11.776 11.776 0 0 1-2.967-3.311h-.172V350h-7.31v-61.404zm34.4 38.786a22.72 22.72 0 0 0-.817-6.063c-.545-1.978-1.376-3.741-2.494-5.289-1.118-1.548-2.551-2.78-4.3-3.698-1.749-.917-3.798-1.376-6.149-1.376-2.465 0-4.558.487-6.278 1.462-1.72.975-3.125 2.25-4.214 3.827-1.09 1.577-1.878 3.368-2.365 5.375a25.782 25.782 0 0 0-.731 6.106c0 2.179.258 4.286.774 6.321s1.333 3.827 2.451 5.375 2.566 2.795 4.343 3.741c1.777.946 3.927 1.419 6.45 1.419s4.63-.487 6.321-1.462a11.753 11.753 0 0 0 4.085-3.87c1.032-1.605 1.777-3.44 2.236-5.504.459-2.064.688-4.185.688-6.364zm41.624-38.786V350h7.74v-51.084h.172L418.24 350h6.966l19.178-51.084h.172V350h7.74v-61.404h-11.18l-19.436 51.6-19.35-51.6h-11.18zm112.918 61.232c-1.261.745-3.01 1.118-5.246 1.118-1.892 0-3.397-.53-4.515-1.591-1.118-1.06-1.677-2.795-1.677-5.203-2.007 2.408-4.343 4.142-7.009 5.203-2.666 1.06-5.547 1.591-8.643 1.591-2.007 0-3.913-.23-5.719-.688-1.806-.459-3.368-1.175-4.687-2.15-1.319-.975-2.365-2.25-3.139-3.827-.774-1.577-1.161-3.483-1.161-5.719 0-2.523.43-4.587 1.29-6.192.86-1.605 1.992-2.91 3.397-3.913 1.405-1.003 3.01-1.763 4.816-2.279a57.843 57.843 0 0 1 5.547-1.29 66.917 66.917 0 0 1 5.719-.903c1.806-.2 3.397-.487 4.773-.86s2.465-.917 3.268-1.634c.803-.717 1.204-1.763 1.204-3.139 0-1.605-.301-2.895-.903-3.87-.602-.975-1.376-1.72-2.322-2.236-.946-.516-2.007-.86-3.182-1.032a24.03 24.03 0 0 0-3.483-.258c-3.096 0-5.676.588-7.74 1.763-2.064 1.175-3.182 3.397-3.354 6.665h-7.31c.115-2.752.688-5.074 1.72-6.966 1.032-1.892 2.408-3.426 4.128-4.601 1.72-1.175 3.684-2.021 5.891-2.537s4.572-.774 7.095-.774c2.007 0 3.999.143 5.977.43 1.978.287 3.77.874 5.375 1.763 1.605.889 2.895 2.136 3.87 3.741.975 1.605 1.462 3.698 1.462 6.278v22.876c0 1.72.1 2.981.301 3.784.2.803.874 1.204 2.021 1.204.63 0 1.376-.143 2.236-.43v5.676zm-11.868-22.79c-.917.688-2.121 1.19-3.612 1.505a55.34 55.34 0 0 1-4.687.774c-1.634.2-3.282.43-4.945.688-1.663.258-3.153.674-4.472 1.247-1.319.573-2.394 1.39-3.225 2.451-.831 1.06-1.247 2.508-1.247 4.343 0 1.204.244 2.222.731 3.053a6.093 6.093 0 0 0 1.892 2.021c.774.516 1.677.889 2.709 1.118 1.032.23 2.121.344 3.268.344 2.408 0 4.472-.33 6.192-.989 1.72-.66 3.125-1.49 4.214-2.494 1.09-1.003 1.892-2.093 2.408-3.268.516-1.175.774-2.279.774-3.311v-7.482zm48.848-7.224h7.568c-.287-2.637-.975-4.916-2.064-6.837-1.09-1.92-2.48-3.512-4.171-4.773-1.691-1.261-3.64-2.193-5.848-2.795-2.207-.602-4.572-.903-7.095-.903-3.497 0-6.565.616-9.202 1.849-2.637 1.233-4.83 2.924-6.579 5.074-1.749 2.15-3.053 4.673-3.913 7.568-.86 2.895-1.29 6.006-1.29 9.331 0 3.325.444 6.378 1.333 9.159.889 2.78 2.207 5.174 3.956 7.181 1.749 2.007 3.927 3.555 6.536 4.644 2.609 1.09 5.604 1.634 8.987 1.634 5.676 0 10.162-1.49 13.459-4.472 3.297-2.981 5.346-7.224 6.149-12.728h-7.482c-.459 3.44-1.706 6.106-3.741 7.998-2.035 1.892-4.859 2.838-8.471 2.838-2.293 0-4.271-.459-5.934-1.376-1.663-.917-3.01-2.136-4.042-3.655-1.032-1.52-1.792-3.254-2.279-5.203a24.727 24.727 0 0 1-.731-6.02c0-2.236.23-4.4.688-6.493.459-2.093 1.218-3.942 2.279-5.547 1.06-1.605 2.48-2.895 4.257-3.87 1.777-.975 3.985-1.462 6.622-1.462 3.096 0 5.561.774 7.396 2.322s3.039 3.727 3.612 6.536z" fill="#53277D"/></g></svg>