<?xml version="1.0" encoding="utf-8"?>
<svg viewBox="130.618 65.066 380.855 255.954" width="380.855" height="255.954" xmlns="http://www.w3.org/2000/svg">
  <g fill="none" fill-rule="evenodd">
    <g fill-rule="nonzero">
      <path d="M284.486 233h.83c2.879.064 5.71 1.24 7.745 3.322-.751.78-1.518 1.526-2.253 2.305-1.143-1.049-2.52-1.86-4.022-2.146-2.222-.477-4.616-.048-6.478 1.24-2.034 1.351-3.411 3.64-3.709 6.088-.328 2.416.345 4.96 1.894 6.835 1.486 1.828 3.755 2.973 6.103 3.052 2.19.128 4.475-.556 6.07-2.114 1.253-1.097 1.832-2.766 2.02-4.387-2.598 0-5.196.016-7.793 0v-3.275h10.938c.563 3.513-.25 7.471-2.88 9.983-1.752 1.78-4.177 2.83-6.65 3.036-2.394.239-4.866-.222-6.994-1.399a12.176 12.176 0 0 1-5.587-6.47c-.939-2.527-.954-5.388-.078-7.931a12.085 12.085 0 0 1 4.303-5.802c1.894-1.415 4.194-2.194 6.541-2.337z" fill="#3780FF"/>
      <path d="M347 234h4v21.996c-1.327 0-2.673.016-4-.015.019-7.317 0-14.649 0-21.981z" fill="#38B137"/>
      <path d="M303.44 242.137c2.169-.386 4.518.046 6.308 1.266 1.626 1.08 2.759 2.778 3.104 4.63.443 2.145-.115 4.491-1.593 6.189-1.593 1.898-4.205 2.917-6.75 2.763-2.333-.124-4.6-1.22-5.979-3.01-1.56-1.976-1.938-4.692-1.084-7.007.854-2.485 3.269-4.383 5.995-4.831zm.494 2.932a4.458 4.458 0 0 0-2.3 1.374c-1.593 1.79-1.494 4.708.263 6.374 1.002.957 2.513 1.405 3.909 1.143a4.41 4.41 0 0 0 3.055-2.115c1.084-1.837.772-4.368-.887-5.803-1.068-.926-2.628-1.312-4.04-.973z" fill="#FA3913"/>
      <path d="M321.44 242.138c2.482-.448 5.194.2 7.052 1.838 3.024 2.547 3.353 7.319.772 10.252-1.561 1.853-4.092 2.872-6.59 2.764-2.384-.062-4.734-1.173-6.148-3.01-1.594-2.024-1.94-4.803-1.035-7.165.904-2.41 3.27-4.247 5.95-4.679zm.494 2.934a4.541 4.541 0 0 0-2.301 1.359c-1.578 1.76-1.513 4.632.18 6.315 1.003 1.004 2.564 1.498 4.01 1.22 1.283-.232 2.433-1.035 3.058-2.116 1.068-1.853.756-4.385-.92-5.82-1.069-.927-2.63-1.298-4.027-.958z" fill="#FCBD06"/>
      <path d="M333.775 243.047c1.852-1.126 4.316-1.438 6.313-.469.628.266 1.143.719 1.643 1.172.016-.422 0-.86.016-1.297 1.079.016 2.158 0 3.253.016v13.786c-.016 2.08-.564 4.283-2.11 5.8-1.69 1.672-4.284 2.188-6.619 1.844-2.496-.36-4.67-2.126-5.637-4.361.967-.453 1.981-.813 2.98-1.235.563 1.282 1.707 2.376 3.14 2.626 1.434.25 3.092-.094 4.026-1.25.999-1.188.999-2.814.95-4.268-.74.704-1.594 1.329-2.624 1.563-2.239.61-4.703-.14-6.426-1.61-1.74-1.469-2.77-3.735-2.674-5.986.049-2.548 1.53-5.002 3.769-6.331zm3.334 2c-.983.157-1.9.689-2.529 1.423-1.514 1.75-1.514 4.549.016 6.268.87 1.016 2.271 1.58 3.624 1.438 1.272-.125 2.448-.906 3.076-1.985 1.063-1.829.886-4.314-.548-5.908-.885-.985-2.303-1.47-3.64-1.235z" fill="#3780FF"/>
      <path d="M354.537 243.83c2.007-1.728 5.102-2.315 7.678-1.404 2.443.849 3.999 2.994 4.785 5.2-3.63 1.389-7.244 2.762-10.874 4.151.502.88 1.271 1.682 2.309 2.006 1.455.479 3.195.309 4.416-.586.485-.34.87-.787 1.238-1.22.92.572 1.84 1.127 2.76 1.698-1.304 1.806-3.496 3.071-5.855 3.272-2.61.293-5.387-.633-7.076-2.516-2.778-2.962-2.51-7.931.619-10.6zm1.79 2.855c-.57.756-.803 1.682-.787 2.592 2.426-.926 4.852-1.851 7.278-2.793-.402-.864-1.372-1.389-2.36-1.527-1.589-.263-3.245.524-4.131 1.728z" fill="#FA3913"/>
    </g>
    <path d="M134.988 310h-4.37v-34.01h4.37l11.827 20.71h.19l11.828-20.71h4.37V310h-4.37v-20.188l.19-5.7h-.19l-10.64 18.668h-2.566l-10.64-18.667h-.19l.19 5.7V310zm44.744.76c-3.42 0-6.238-1.172-8.454-3.515-2.217-2.343-3.326-5.304-3.326-8.882 0-3.547 1.077-6.5 3.23-8.86 2.154-2.358 4.909-3.538 8.266-3.538 3.451 0 6.198 1.116 8.24 3.349 2.043 2.232 3.065 5.36 3.065 9.381l-.048.475h-18.288c.064 2.28.824 4.117 2.28 5.51 1.457 1.393 3.199 2.09 5.226 2.09 2.786 0 4.971-1.393 6.554-4.18l3.895 1.9c-1.045 1.963-2.493 3.5-4.346 4.608-1.852 1.108-3.95 1.662-6.294 1.662zm-6.982-15.2h13.347c-.126-1.615-.783-2.953-1.97-4.014-1.188-1.06-2.78-1.591-4.775-1.591-1.646 0-3.063.507-4.25 1.52-1.188 1.013-1.972 2.375-2.352 4.085zm39.805 7.98c0 2.027-.887 3.737-2.66 5.13-1.773 1.393-4.006 2.09-6.698 2.09-2.343 0-4.401-.61-6.174-1.829-1.774-1.219-3.04-2.826-3.8-4.821l3.894-1.663c.57 1.394 1.402 2.478 2.494 3.254 1.093.776 2.288 1.164 3.587 1.164 1.393 0 2.557-.3 3.49-.903.935-.601 1.402-1.314 1.402-2.137 0-1.488-1.14-2.58-3.42-3.277l-3.99-.998c-4.528-1.14-6.793-3.325-6.793-6.555 0-2.122.863-3.824 2.59-5.106 1.725-1.283 3.934-1.924 6.625-1.924 2.059 0 3.92.49 5.582 1.473 1.662.981 2.826 2.295 3.491 3.942l-3.895 1.615c-.443-.982-1.164-1.75-2.161-2.304-.998-.554-2.114-.831-3.349-.831-1.14 0-2.161.285-3.064.855-.902.57-1.353 1.267-1.353 2.09 0 1.33 1.25 2.28 3.752 2.85l3.515.903c4.623 1.14 6.935 3.467 6.935 6.982zm21.612 0c0 2.027-.886 3.737-2.66 5.13-1.773 1.393-4.005 2.09-6.697 2.09-2.343 0-4.402-.61-6.175-1.829-1.773-1.219-3.04-2.826-3.8-4.821l3.895-1.663c.57 1.394 1.401 2.478 2.494 3.254 1.092.776 2.288 1.164 3.586 1.164 1.393 0 2.557-.3 3.491-.903.934-.601 1.401-1.314 1.401-2.137 0-1.488-1.14-2.58-3.42-3.277l-3.99-.998c-4.528-1.14-6.792-3.325-6.792-6.555 0-2.122.863-3.824 2.589-5.106 1.726-1.283 3.934-1.924 6.626-1.924 2.058 0 3.919.49 5.581 1.473 1.663.981 2.826 2.295 3.492 3.942l-3.895 1.615c-.444-.982-1.164-1.75-2.162-2.304-.997-.554-2.113-.831-3.349-.831-1.14 0-2.16.285-3.063.855-.903.57-1.354 1.267-1.354 2.09 0 1.33 1.25 2.28 3.752 2.85l3.515.903c4.624 1.14 6.935 3.467 6.935 6.982zm6.983-.665c0 1.14.483 2.09 1.449 2.85.966.76 2.098 1.14 3.396 1.14 1.837 0 3.475-.68 4.916-2.043 1.441-1.361 2.161-2.96 2.161-4.797-1.361-1.077-3.261-1.615-5.7-1.615-1.773 0-3.253.427-4.44 1.282-1.188.856-1.782 1.916-1.782 3.183zm5.653-16.91c3.23 0 5.779.863 7.647 2.589 1.868 1.726 2.803 4.093 2.803 7.101V310h-4.18v-3.23h-.19c-1.806 2.66-4.212 3.99-7.22 3.99-2.566 0-4.71-.76-6.437-2.28-1.726-1.52-2.589-3.42-2.589-5.7 0-2.407.91-4.322 2.732-5.747 1.82-1.426 4.251-2.138 7.291-2.138 2.597 0 4.734.475 6.412 1.425v-.998c0-1.52-.601-2.81-1.804-3.87-1.204-1.062-2.613-1.592-4.228-1.592-2.438 0-4.37 1.03-5.795 3.087l-3.847-2.422c2.121-3.04 5.256-4.56 9.405-4.56zm25.84 20.805c2.153 0 3.91-.776 5.272-2.327 1.425-1.552 2.137-3.579 2.137-6.08 0-2.439-.712-4.45-2.137-6.033-1.393-1.583-3.15-2.375-5.273-2.375-2.09 0-3.847.792-5.272 2.375-1.425 1.583-2.137 3.594-2.137 6.033 0 2.47.712 4.48 2.137 6.032 1.425 1.583 3.182 2.375 5.272 2.375zm-.143 14.25c-1.298 0-2.517-.166-3.658-.499-1.14-.332-2.177-.8-3.11-1.401a10.05 10.05 0 0 1-2.4-2.137 9.011 9.011 0 0 1-1.52-2.755l4.133-1.71a6.542 6.542 0 0 0 2.47 3.277c1.172.823 2.533 1.235 4.085 1.235 2.375 0 4.227-.712 5.558-2.137 1.33-1.426 1.995-3.389 1.995-5.89v-2.233h-.19c-.824 1.235-1.94 2.209-3.35 2.921-1.408.713-2.936 1.069-4.583 1.069-3.04 0-5.652-1.187-7.838-3.563-2.153-2.438-3.23-5.383-3.23-8.834 0-3.452 1.077-6.381 3.23-8.788 2.186-2.407 4.798-3.61 7.838-3.61 1.647 0 3.175.356 4.584 1.069 1.409.712 2.525 1.686 3.349 2.921h.19v-3.23h4.18v22.277c0 3.737-1.061 6.666-3.183 8.788-2.153 2.153-5.003 3.23-8.55 3.23zm27.502-10.26c-3.42 0-6.238-1.172-8.454-3.515-2.217-2.343-3.325-5.304-3.325-8.882 0-3.547 1.076-6.5 3.23-8.86 2.153-2.358 4.908-3.538 8.264-3.538 3.452 0 6.2 1.116 8.242 3.349 2.042 2.232 3.063 5.36 3.063 9.381l-.047.475h-18.288c.064 2.28.824 4.117 2.28 5.51 1.457 1.393 3.199 2.09 5.226 2.09 2.786 0 4.971-1.393 6.555-4.18l3.894 1.9c-1.045 1.963-2.493 3.5-4.346 4.608-1.852 1.108-3.95 1.662-6.293 1.662zm-6.982-15.2h13.348c-.127-1.615-.784-2.953-1.972-4.014-1.187-1.06-2.778-1.591-4.774-1.591-1.646 0-3.063.507-4.25 1.52-1.188 1.013-1.972 2.375-2.352 4.085zm39.805 7.98c0 2.027-.887 3.737-2.66 5.13-1.773 1.393-4.006 2.09-6.698 2.09-2.343 0-4.401-.61-6.174-1.829-1.774-1.219-3.04-2.826-3.8-4.821l3.894-1.663c.57 1.394 1.402 2.478 2.494 3.254 1.093.776 2.288 1.164 3.587 1.164 1.393 0 2.557-.3 3.49-.903.935-.601 1.402-1.314 1.402-2.137 0-1.488-1.14-2.58-3.42-3.277l-3.99-.998c-4.528-1.14-6.792-3.325-6.792-6.555 0-2.122.862-3.824 2.588-5.106 1.726-1.283 3.935-1.924 6.627-1.924 2.058 0 3.918.49 5.58 1.473 1.663.981 2.827 2.295 3.492 3.942l-3.895 1.615c-.443-.982-1.164-1.75-2.161-2.304-.998-.554-2.114-.831-3.349-.831-1.14 0-2.161.285-3.064.855-.902.57-1.353 1.267-1.353 2.09 0 1.33 1.25 2.28 3.752 2.85l3.515.903c4.623 1.14 6.935 3.467 6.935 6.982zm24.985-27.93c1.583 0 2.882.27 3.895.808l-1.188 3.847c-.76-.38-1.614-.57-2.565-.57-1.076 0-1.955.372-2.636 1.116-.68.744-1.021 1.734-1.021 2.969v2.945h6.08v3.99h-6.08V310h-4.37v-19.285h-4.37v-3.99h4.37v-3.373c0-2.311.736-4.18 2.209-5.604 1.472-1.426 3.364-2.138 5.676-2.138zm5.415 22.752c0-3.578 1.124-6.539 3.373-8.882 2.28-2.343 5.145-3.515 8.597-3.515s6.302 1.172 8.55 3.515c2.28 2.343 3.42 5.304 3.42 8.882 0 3.61-1.14 6.571-3.42 8.883-2.248 2.343-5.098 3.515-8.55 3.515-3.452 0-6.317-1.172-8.597-3.515-2.249-2.343-3.373-5.304-3.373-8.882zm4.37 0c0 2.502.728 4.529 2.185 6.08 1.457 1.552 3.262 2.328 5.415 2.328s3.958-.776 5.415-2.327c1.457-1.552 2.185-3.579 2.185-6.08 0-2.47-.728-4.481-2.185-6.033-1.488-1.583-3.293-2.375-5.415-2.375s-3.927.792-5.415 2.375c-1.457 1.552-2.185 3.562-2.185 6.033zM395.525 310h-4.37v-23.275h4.18v3.8h.19c.443-1.235 1.354-2.288 2.731-3.159 1.378-.87 2.731-1.306 4.062-1.306 1.266 0 2.343.19 3.23.57l-1.33 4.228c-.539-.222-1.394-.333-2.566-.333-1.646 0-3.08.665-4.298 1.995-1.22 1.33-1.829 2.882-1.829 4.655V310zm59.138-34.01h4.56L450.15 310h-4.465l-7.315-22.42h-.19L430.865 310H426.4l-9.452-34.01h4.56l7.172 26.743h.19l7.363-22.183h4.084l7.363 22.183h.19l6.793-26.743zm18.43 34.77c-3.42 0-6.239-1.172-8.456-3.515-2.216-2.343-3.325-5.304-3.325-8.882 0-3.547 1.077-6.5 3.23-8.86 2.154-2.358 4.909-3.538 8.266-3.538 3.451 0 6.198 1.116 8.24 3.349 2.043 2.232 3.065 5.36 3.065 9.381l-.048.475h-18.288c.064 2.28.824 4.117 2.28 5.51 1.457 1.393 3.199 2.09 5.226 2.09 2.786 0 4.971-1.393 6.554-4.18l3.896 1.9c-1.046 1.963-2.494 3.5-4.347 4.608-1.852 1.108-3.95 1.662-6.294 1.662zm-6.983-15.2h13.347c-.126-1.615-.783-2.953-1.97-4.014-1.188-1.06-2.78-1.591-4.775-1.591-1.646 0-3.063.507-4.25 1.52-1.188 1.013-1.972 2.375-2.352 4.085zm34.295 15.2c-1.71 0-3.27-.364-4.679-1.092-1.409-.729-2.493-1.695-3.253-2.898h-.19V310h-4.18v-34.01h4.37v10.735l-.19 3.23h.19c.76-1.203 1.844-2.17 3.253-2.897 1.41-.729 2.969-1.093 4.679-1.093 3.072 0 5.668 1.203 7.79 3.61 2.185 2.438 3.278 5.367 3.278 8.788 0 3.451-1.093 6.38-3.278 8.787-2.122 2.407-4.718 3.61-7.79 3.61zm-.712-3.99c2.09 0 3.847-.792 5.272-2.375 1.425-1.552 2.138-3.562 2.138-6.032 0-2.439-.713-4.45-2.138-6.033-1.425-1.583-3.182-2.375-5.272-2.375-2.122 0-3.895.792-5.32 2.375-1.394 1.583-2.09 3.594-2.09 6.033 0 2.47.696 4.496 2.09 6.08 1.425 1.551 3.198 2.327 5.32 2.327z" fill="#55585D"/>
    <circle fill="#1A73E8" fill-rule="nonzero" cx="320.066" cy="128.987" r="63.921"/>
    <path d="M343.328 156.599h-43.559c-6.194 0-11.598-4.679-11.598-10.873v-.066 3.624c0 6.195 5.404 11.598 11.598 11.598h43.559c6.26 0 11.598-5.47 11.598-11.598v-3.624c0 6.194-5.403 10.939-11.598 10.939zM288.105 125.363v-4.942L280 107.043c-.462-.725-.66-1.384-.593-2.043v5.668c0 .527.197 1.054.527 1.647l8.171 13.048z" fill="#185ABC" fill-rule="nonzero"/>
    <path d="M343.328 102.826h-61.022c-2.438 0-3.822 2.108-2.175 4.349l7.974 13.839v24.712c0 6.326 4.613 11.598 10.873 11.598h44.284c6.26 0 11.598-5.338 11.598-11.598V114.49c.066-6.327-5.272-11.664-11.532-11.664z" fill="#FFF" fill-rule="nonzero"/>
    <path d="M342.603 120.289h-42.109c-1.845 0-3.624-1.12-3.624-2.9 0-1.779 1.779-2.9 3.624-2.9h42.11c1.844 0 3.624 1.121 3.624 2.9 0 1.78-1.78 2.9-3.625 2.9zM342.603 131.887h-42.109c-1.845 0-3.624-1.12-3.624-2.9 0-1.779 1.779-2.9 3.624-2.9h42.11c1.844 0 3.624 1.121 3.624 2.9 0 1.78-1.78 2.9-3.625 2.9zM330.94 143.55h-30.512c-1.845 0-3.624-1.12-3.624-2.899s1.779-2.9 3.624-2.9h30.511c1.845 0 3.625 1.121 3.625 2.9 0 1.78-1.78 2.9-3.625 2.9z" fill="#8AB4F8" fill-rule="nonzero"/>
    <path d="M383.987 128.658c-.131 28.007-18.385 51.796-43.558 60.231-6.393 2.175-13.246 3.295-20.363 3.295-35.19 0-63.724-28.402-63.922-63.526v.395c0 35.322 28.6 63.922 63.922 63.922 7.117 0 13.97-1.186 20.363-3.295 25.305-8.501 43.558-32.422 43.558-60.627v-.395z" fill="#185ABC" fill-rule="nonzero"/>
    <path d="M340.363 68.36c-6.393-2.174-13.246-3.294-20.363-3.294-35.322 0-63.921 28.6-63.921 63.921v.396c.197-35.124 28.731-63.526 63.921-63.526 7.117 0 13.97 1.186 20.363 3.295 25.239 8.435 43.427 32.224 43.558 60.23v-.395c.066-28.204-18.187-52.125-43.558-60.626z" fill="#8AB4F8" fill-rule="nonzero"/>
  </g>
</svg>