<svg width="640" height="384" viewBox="0 0 640 384" xmlns="http://www.w3.org/2000/svg"><title>homebrew-logo</title><g fill-rule="nonzero" fill="none"><path d="M68.644 268.521c-9.628-1.137-23.262-4.487-26.132-6.402-.539-.36-.419-4.129.418-16.275 1.615-22.499 4.186-60.255 4.186-61.332 0-.479-.299-.898-.718-.898-1.196 0-4.604-2.991-5.62-4.906-.658-1.317-.898-2.932-.718-5.385.299-4.01 1.614-6.163 4.784-7.899 2.033-1.137 2.152-1.316 2.392-5.146.717-9.633 7.953-18.489 17.102-20.942l2.512-.658-1.735-2.214c-2.391-2.932-4.245-7.24-4.664-10.77-.359-3.232.778-9.694 1.734-9.694.3 0 2.332.838 4.425 1.795 4.665 2.214 10.405 7.42 11.9 10.71.598 1.377 1.256 2.454 1.436 2.394.179 0 1.494-1.615 2.93-3.59 1.375-1.975 2.93-3.71 3.408-3.89 1.196-.478 3.409 1.018 5.502 3.71 1.315 1.796 1.495 2.274.777 2.514-1.914.598-5.86 5.445-6.877 8.496-.538 1.676-.897 3.231-.717 3.41.179.12 2.451-.418 5.023-1.316 3.588-1.256 5.382-1.555 7.714-1.316 5.92.598 11.72 4.787 15.248 10.89 1.555 2.753 2.333 5.445 3.23 11.19.299 1.974.717 2.393 2.99 3.41 6.817 2.992 7.893 12.087 2.092 17.053-1.076.838-2.511 1.736-3.348 1.915-1.136.3-1.435.778-1.435 2.154v1.735l5.56-.418c8.612-.599 13.396 1.436 14.771 6.222 1.017 3.65 3.648 28.542 4.007 37.817.299 8.317.239 8.736-1.017 10.351-2.392 3.052-11.063 6.343-16.624 6.403h-1.973l.358 4.667c.18 2.513.479 5.445.658 6.462.24 1.795.12 1.915-4.066 3.71-5.8 2.393-11.601 4.069-18.12 5.265-6.338 1.137-24.875 1.616-31.393.778zm57.347-35.004l3.169-.897-.359-3.112c-.18-1.735-.897-8.855-1.674-15.916-.957-8.915-1.615-13.044-2.213-13.702-.598-.599-1.734-.778-3.767-.599-1.615.18-3.05.42-3.17.599-.179.18.3 8.018 1.017 17.472 1.495 19.446.837 18.01 6.997 16.155z" fill="#040404"/><path d="M69.99 265.586c-6.278-.598-13.454-2.034-19.732-3.89-4.246-1.256-4.963-1.675-4.963-2.812 0-1.736 4.903-74.268 5.022-74.448.12-.12 2.751.48 5.86 1.317 6.518 1.616 19.554 3.292 25.952 3.292 4.245 0 4.305 0 6.876 2.633 2.093 2.094 3.23 2.753 5.441 3.052 4.964.718 10.405-2.274 11.84-6.523.478-1.556 1.136-2.095 3.05-2.693 1.375-.42 2.81-.898 3.288-1.078.658-.239.837.36.837 2.694 0 1.675.24 3.171.479 3.35.299.18 2.93.06 5.86-.239 6.577-.718 10.643-.239 12.557 1.437 1.375 1.197 1.614 2.214 3.289 16.218.956 8.258 1.913 18.372 2.152 22.621.359 7.48.359 7.66-1.076 9.157-.778.837-2.093 1.915-2.93 2.333-2.033 1.078-10.046 2.694-13.215 2.694h-2.511l.418 7.061.479 7.122-3.23 1.376c-11.061 4.728-29.538 6.942-45.743 5.326zm56.028-28.665c1.137-.36 2.99-1.137 4.067-1.796 2.391-1.496 2.391-1.496.179-21.125-1.854-16.457-1.973-16.876-6.219-17.594-3.348-.54-8.79.359-9.208 1.496-.359.897 1.973 36.086 2.57 38.959.3 1.316.48 1.376 3.41 1.017 1.733-.24 4.065-.658 5.201-.957zM99.23 207.776c2.093-2.214 2.571-4.309 1.495-6.942-.957-2.214-3.528-4.01-5.8-4.01-3.707 0-7.056 4.19-6.279 7.84 1.017 4.489 7.475 6.344 10.584 3.112z" fill="#FDB130"/><path d="M92.354 205.92c-2.153-2.393-.539-6.103 2.69-6.103 3.05 0 4.664 4.129 2.392 6.164-1.435 1.316-3.886 1.256-5.082-.06v-.001zm-.658-15.14c-.837-.658-1.973-1.975-2.452-2.872l-.837-1.676-9.746-.36c-5.382-.179-12.139-.777-15.129-1.316-6.517-1.197-15.905-3.59-17.58-4.488-2.87-1.496-3.886-6.463-2.033-9.635 1.017-1.676 4.007-3.531 5.681-3.531.419 0 1.375-1.317 2.153-2.933 1.853-4.129 4.484-5.685 8.91-5.326 2.989.24 3.587.539 5.68 2.753 2.511 2.693 2.93 4.668 2.033 9.276-.24 1.317-.12 1.616.837 1.616.658 0 1.555-.718 2.033-1.616 2.093-4.07 6.099-5.984 10.165-4.907 3.648 1.017 5.382 3.351 7.534 10.173 1.017 3.352 1.974 5.985 2.033 5.865.12-.12 0-1.855-.299-3.83-.897-7.36-.657-11.19.897-13.525 2.87-4.189 9.269-5.386 13.335-2.453 1.315.957 3.348 3.89 4.126 5.984 0 .06 1.255-.3 2.69-.778 3.528-1.316 5.98-.718 8.252 1.855 1.495 1.676 1.854 2.633 1.854 4.788 0 2.334-.3 3.052-2.033 4.788-1.136 1.137-2.512 2.034-3.11 2.034-.657 0-3.528.778-6.517 1.736-5.262 1.735-5.382 1.795-6.16 4.189-1.195 3.65-3.707 5.446-7.533 5.446-2.332 0-3.648-.36-4.784-1.257z" fill="#FDB130"/><path d="M86.793 165.645c-.718-1.197-5.262-2.932-7.714-2.932-1.375 0-3.468.538-4.784 1.197-2.87 1.496-3.288 1.496-3.288.12 0-1.736-2.93-5.447-5.262-6.643-4.904-2.454-9.269-2.095-13.454 1.256l-2.272 1.796.418-1.736c.777-3.411 3.767-9.096 6.04-11.37 2.63-2.634 6.457-4.609 10.045-5.207 1.794-.3 3.827.06 8.312 1.436 3.229.958 5.92 1.796 5.98 1.796.059 0 .119-1.975.119-4.31.06-4.966 1.435-8.437 4.724-12.267 1.734-1.975 2.033-2.155 2.391-1.197.36.778-.06 1.675-1.375 2.992-2.75 2.872-4.903 7.9-4.903 11.67 0 3.77.299 3.83 6.757 1.675 6.637-2.214 7.833-2.334 11.36-1.316 7.236 2.094 12.976 10.353 12.976 18.731 0 3.65-1.435 4.07-3.767 1.137-3.707-4.668-10.105-6.104-15.188-3.47-2.391 1.256-5.56 4.607-5.56 5.984 0 .957-1.077 1.436-1.555.658z" fill="#FDB130"/><path d="M74.415 140.211c-6.338-3.292-10.584-9.575-10.763-15.859-.06-1.855.06-3.59.299-3.83.598-.599 5.142 1.975 8.012 4.608 3.349 3.112 5.681 8.02 6.1 12.867.12 2.094.06 3.77-.24 3.77-.299-.06-1.853-.718-3.408-1.556z" fill="#FDB130"/><path d="M69.99 265.586c-6.278-.598-13.454-2.034-19.732-3.89-4.246-1.256-4.963-1.675-4.963-2.812-.06-2.095 4.903-74.328 5.082-74.507.18-.18 6.996 1.675 7.355 1.975.12.12-.837 14.901-2.033 32.914-1.854 27.828-2.093 32.795-1.375 33.274 1.136.718 6.458 2.274 11.9 3.411 3.228.659 7.653.958 15.845.958 10.285-.06 11.9-.18 17.042-1.556 7.952-2.154 11.36-3.71 11.36-5.207 0-1.436-4.006-52.723-4.484-57.271-.419-4.549.419-6.523 3.408-7.361 1.316-.42 2.75-.898 3.23-1.078.657-.239.836.36.836 2.694 0 1.675.24 3.171.479 3.35.299.18 2.93.06 5.86-.239 6.577-.718 10.643-.239 12.557 1.437 1.375 1.197 1.614 2.214 3.289 16.218.956 8.258 1.913 18.372 2.152 22.621.359 7.48.359 7.66-1.076 9.157-.778.837-2.093 1.915-2.93 2.333-2.033 1.078-10.046 2.694-13.215 2.694h-2.511l.418 7.061.479 7.122-3.23 1.376c-11.061 4.728-29.538 6.942-45.743 5.326zm56.028-28.665c1.137-.36 2.99-1.137 4.067-1.796 2.391-1.496 2.391-1.496.179-21.125-1.854-16.457-1.973-16.876-6.219-17.594-3.348-.54-8.79.359-9.208 1.496-.359.897 1.973 36.086 2.57 38.959.3 1.316.48 1.376 3.41 1.017 1.733-.24 4.065-.658 5.201-.957z" fill="#BEC1C2"/><path d="M60.244 242.486c.06-4.847 3.527-54.16 3.886-54.519.479-.478 5.262-.12 5.86.42.24.239-.359 12.627-1.375 27.528-.957 14.901-1.794 27.469-1.794 27.948 0 .598-.837.838-3.289.838h-3.288v-2.215zm32.11-36.566c-2.153-2.393-.539-6.103 2.69-6.103 3.05 0 4.664 4.129 2.392 6.164-1.435 1.316-3.886 1.256-5.082-.06v-.001zm-.658-15.14c-.837-.658-1.973-1.975-2.452-2.872l-.837-1.676-9.746-.36c-5.382-.179-12.139-.777-15.129-1.316-6.517-1.197-15.905-3.59-17.58-4.488-2.87-1.496-3.886-6.463-2.033-9.635 1.017-1.676 4.007-3.531 5.681-3.531.419 0 1.375-1.317 2.153-2.933 1.853-4.129 4.484-5.685 8.91-5.326 2.989.24 3.587.539 5.68 2.753 2.511 2.693 2.93 4.668 2.033 9.276-.24 1.317-.12 1.616.837 1.616.658 0 1.555-.718 2.033-1.616 2.093-4.07 6.099-5.984 10.165-4.907 3.648 1.017 5.382 3.351 7.534 10.173 1.017 3.352 1.974 5.985 2.033 5.865.12-.12 0-1.855-.299-3.83-.897-7.36-.657-11.19.897-13.525 2.87-4.189 9.269-5.386 13.335-2.453 1.315.957 3.348 3.89 4.126 5.984 0 .06 1.255-.3 2.69-.778 3.528-1.316 5.98-.718 8.252 1.855 1.495 1.676 1.854 2.633 1.854 4.788 0 2.334-.3 3.052-2.033 4.788-1.136 1.137-2.512 2.034-3.11 2.034-.657 0-3.528.778-6.517 1.736-5.262 1.735-5.382 1.795-6.16 4.189-1.195 3.65-3.707 5.446-7.533 5.446-2.332 0-3.648-.36-4.784-1.257z" fill="#BEC1C2"/><path d="M86.793 165.645c-.718-1.197-5.262-2.932-7.714-2.932-1.375 0-3.468.538-4.784 1.197-2.87 1.496-3.288 1.496-3.288.12 0-1.736-2.93-5.447-5.262-6.643-4.904-2.454-9.269-2.095-13.454 1.256l-2.272 1.796.418-1.736c.777-3.411 3.767-9.096 6.04-11.37 2.63-2.634 6.457-4.609 10.045-5.207 1.794-.3 3.827.06 8.312 1.436 3.229.958 5.92 1.796 5.98 1.796.059 0 .119-1.975.119-4.31.06-4.966 1.435-8.437 4.724-12.267 1.734-1.975 2.033-2.155 2.391-1.197.36.778-.06 1.675-1.375 2.992-2.75 2.872-4.903 7.9-4.903 11.67 0 3.77.299 3.83 6.757 1.675 6.637-2.214 7.833-2.334 11.36-1.316 7.236 2.094 12.976 10.353 12.976 18.731 0 3.65-1.435 4.07-3.767 1.137-3.707-4.668-10.105-6.104-15.188-3.47-2.391 1.256-5.56 4.607-5.56 5.984 0 .957-1.077 1.436-1.555.658z" fill="#BEC1C2"/><path d="M74.415 140.211c-6.338-3.292-10.584-9.575-10.763-15.859-.06-1.855.06-3.59.299-3.83.598-.599 5.142 1.975 8.012 4.608 3.349 3.112 5.681 8.02 6.1 12.867.12 2.094.06 3.77-.24 3.77-.299-.06-1.853-.718-3.408-1.556z" fill="#BEC1C2"/><path d="M74.425 265.736c-.06-.06-1.974-.24-4.247-.479-8.194-.658-18.064-2.812-22.909-4.906l-1.914-.837.3-4.906c.179-2.692.418-6.64.597-8.795.36-4.905.838-12.204 1.197-17.649.18-2.273.418-6.222.598-8.675.18-2.453.478-6.222.598-8.376.18-2.153.419-5.623.538-7.777.18-2.154.419-6.461.598-9.572.36-5.804.838-8.975 1.316-8.975.898 0 5.982 1.436 6.4 1.795.24.18-.538 15.017-1.734 32.846-1.914 27.64-2.094 32.546-1.376 33.024 1.137.718 6.46 2.274 11.903 3.41 3.23.658 7.656.958 15.851.958 10.288-.06 11.903-.18 17.047-1.556 7.955-2.154 11.365-3.71 11.365-5.205 0-1.436-4.008-52.528-4.486-57.614-.24-2.034-.12-3.53.299-3.769.299-.18.598-.897.598-1.495 0-.838.658-1.257 2.811-1.676 1.555-.359 2.99-.538 3.11-.359.18.12.42 1.376.599 2.812.359 2.393.478 2.513 2.452 2.573 1.137.06 3.888-.18 6.041-.479 6.939-1.017 11.604 1.197 12.202 5.863.12.958.36 3.35.599 5.325.239 1.974.478 4.427.598 5.384.12 1.018.359 3.171.538 4.787.24 1.675.538 4.367.718 5.982.598 4.846.718 6.222 1.136 13.76l.36 7.18-1.676 1.615c-2.572 2.453-8.733 4.188-15.432 4.308l-2.99.06.06 2.094c0 1.136.179 4.427.418 7.239l.359 5.205-1.615.598c-8.434 3.17-15.552 4.966-23.746 5.803-3.23.36-18.782.778-19.081.479zm52.936-29.076c3.35-1.137 4.845-2.393 4.904-4.009 0-1.854-.777-10.649-1.615-17.649-.717-6.162-1.316-11.905-1.435-14.119-.24-4.008-4.127-5.624-10.886-4.607l-4.128.599.24 3.41c.404 5.205.802 10.41 1.196 15.615.718 8.376.897 11.247 1.196 15.555.479 6.88.36 6.76 4.666 6.342 2.033-.18 4.665-.718 5.862-1.137z" fill="#FFDC93"/><path d="M60.309 242.403c.06-4.846 3.529-54.144 3.888-54.503.478-.478 5.263-.12 5.862.42.239.239-.36 12.623-1.376 27.52-.957 14.897-1.795 27.46-1.795 27.94 0 .598-.837.837-3.29.837h-3.29v-2.214h.001zm32.539-36.973c-1.914-1.915-1.675-3.83.538-5.085 1.436-.778 1.794-.778 3.29 0 2.273 1.316 2.452 3.649.359 5.324-2.034 1.616-2.333 1.556-4.187-.24v.001zm.598-14.06c-.658-.239-2.153-1.555-3.29-2.871l-2.034-2.393-8.972-.36c-9.33-.358-9.57-.358-15.85-1.555a490.729 490.729 0 0 0-5.085-.957c-1.675-.24-12.381-3.23-12.92-3.59-.777-.419-2.332-3.948-2.332-5.085 0-2.034 1.854-5.743 3.17-6.402.718-.359 2.213-.837 3.29-1.017 1.076-.239 1.914-.777 1.914-1.256 0-1.735 2.332-5.384 3.947-6.222.898-.479 3.05-.897 4.786-.838 2.631 0 3.588.3 5.383 1.795 2.572 2.094 4.067 6.043 3.17 8.436-.837 2.213-.658 2.991.718 3.35.897.24 1.375-.06 1.794-1.256.897-2.453 3.53-4.846 5.862-5.504 2.751-.778 7.596.837 8.972 2.931.538.838 1.974 4.427 3.23 8.077l2.213 6.64-.359-3.888c-.239-2.154-.418-6.043-.478-8.675-.06-6.102 1.017-7.957 5.802-9.572 3.17-1.077 3.29-1.077 6.34.06 3.17 1.136 5.443 3.35 5.443 5.264 0 1.496 1.555 1.795 3.828.718 1.137-.538 2.512-.957 3.05-.957 1.556 0 4.786 2.154 5.982 4.008 2.333 3.53-.538 9.333-5.024 10.111-1.196.24-2.453.598-2.752.898-.358.239-2.512.957-4.785 1.555-3.888 1.017-4.187 1.197-4.366 2.872-.479 4.307-6.34 7.418-10.647 5.683z" fill="#FFDC93"/><path d="M74.425 265.736c-.06-.06-1.974-.24-4.247-.479-8.194-.658-18.064-2.812-22.909-4.906l-1.914-.837.3-4.906c.179-2.692.418-6.64.597-8.795.36-4.905.838-12.204 1.197-17.649.18-2.273.418-6.222.598-8.675.18-2.453.478-6.222.598-8.376.18-2.153.419-5.623.538-7.777.18-2.154.419-6.461.598-9.572.36-6.163.838-8.975 1.436-8.975.24 0 1.794.36 3.41.778l2.99.778-.18 3.59c-.119 1.914-1.076 16.751-2.153 32.845-1.136 16.153-1.973 29.375-1.854 29.495.12.12 2.034.837 4.307 1.615 14.415 4.846 36.546 4.487 49.227-.838 3.768-1.555 3.888-1.675 3.768-3.709-.06-1.077-1.136-14.598-2.333-30.033-1.256-15.854-1.973-29.076-1.794-30.572.419-2.632.479-2.692 3.23-3.29 1.555-.3 2.93-.48 3.05-.3.18.12.42 1.376.599 2.812.359 2.393.478 2.513 2.452 2.573 1.137.06 3.888-.18 6.041-.479 6.939-1.017 11.604 1.197 12.202 5.863.12.958.36 3.35.599 5.325.239 1.974.478 4.427.598 5.384.12 1.018.359 3.171.538 4.787.24 1.675.538 4.367.718 5.982.598 4.846.718 6.222 1.136 13.76l.36 7.18-1.676 1.615c-2.572 2.453-8.733 4.188-15.432 4.308l-2.99.06.06 2.094c0 1.136.179 4.427.418 7.239l.359 5.205-1.615.598c-8.434 3.17-15.552 4.966-23.746 5.803-3.23.36-18.782.778-19.081.479zm52.936-29.076c3.35-1.137 4.845-2.393 4.904-4.009 0-1.854-.777-10.649-1.615-17.649-.717-6.162-1.316-11.905-1.435-14.119-.24-4.008-4.127-5.624-10.886-4.607l-4.128.599.24 3.41c.404 5.205.802 10.41 1.196 15.615.718 8.376.897 11.247 1.196 15.555.479 6.88.36 6.76 4.666 6.342 2.033-.18 4.665-.718 5.862-1.137z" fill="#F5F5F5"/><path d="M92.848 205.43c-1.914-1.915-1.675-3.83.538-5.085 1.436-.778 1.794-.778 3.29 0 2.273 1.316 2.452 3.649.359 5.324-2.034 1.616-2.333 1.556-4.187-.24v.001zm.598-14.06c-.658-.239-2.153-1.555-3.29-2.871l-2.034-2.393-8.972-.36c-9.33-.358-9.57-.358-15.85-1.555a490.729 490.729 0 0 0-5.085-.957c-1.675-.24-12.381-3.23-12.92-3.59-.777-.419-2.332-3.948-2.332-5.085 0-2.034 1.854-5.743 3.17-6.402.718-.359 2.213-.837 3.29-1.017 1.076-.239 1.914-.777 1.914-1.256 0-1.735 2.332-5.384 3.947-6.222.898-.479 3.05-.897 4.786-.838 2.631 0 3.588.3 5.383 1.795 2.572 2.094 4.067 6.043 3.17 8.436-.837 2.213-.658 2.991.718 3.35.897.24 1.375-.06 1.794-1.256.897-2.453 3.53-4.846 5.862-5.504 2.751-.778 7.596.837 8.972 2.931.538.838 1.974 4.427 3.23 8.077l2.213 6.64-.359-3.888c-.239-2.154-.418-6.043-.478-8.675-.06-6.102 1.017-7.957 5.802-9.572 3.17-1.077 3.29-1.077 6.34.06 3.17 1.136 5.443 3.35 5.443 5.264 0 1.496 1.555 1.795 3.828.718 1.137-.538 2.512-.957 3.05-.957 1.556 0 4.786 2.154 5.982 4.008 2.333 3.53-.538 9.333-5.024 10.111-1.196.24-2.453.598-2.752.898-.358.239-2.512.957-4.785 1.555-3.888 1.017-4.187 1.197-4.366 2.872-.479 4.307-6.34 7.418-10.647 5.683z" fill="#F5F5F5"/><path d="M165 162v60.891h13.305v-26.267h24.49v26.267H216.1V162h-13.305v23.367h-24.49V162H165zm72.2 38.889c0 1.762.17 3.482.509 5.16.339 1.676.918 3.183 1.737 4.52a9.28 9.28 0 0 0 3.263 3.197c1.356.796 3.05 1.194 5.084 1.194s3.743-.398 5.127-1.194a9.173 9.173 0 0 0 3.305-3.198c.82-1.336 1.399-2.843 1.737-4.52.34-1.677.509-3.397.509-5.16 0-1.762-.17-3.496-.509-5.202-.338-1.705-.918-3.212-1.737-4.52-.819-1.307-1.92-2.373-3.305-3.198-1.384-.824-3.093-1.236-5.127-1.236-2.033 0-3.728.412-5.084 1.236a9.787 9.787 0 0 0-3.263 3.198c-.819 1.308-1.398 2.815-1.737 4.52a26.624 26.624 0 0 0-.508 5.203h-.001zm-12.033 0c0-3.525.537-6.723 1.61-9.595 1.074-2.87 2.599-5.316 4.576-7.334 1.978-2.018 4.35-3.582 7.119-4.69 2.768-1.11 5.875-1.663 9.321-1.663 3.447 0 6.568.554 9.364 1.663 2.797 1.108 5.184 2.672 7.161 4.69 1.978 2.018 3.503 4.463 4.576 7.334 1.074 2.872 1.61 6.07 1.61 9.595 0 3.525-.536 6.708-1.61 9.551-1.073 2.843-2.598 5.273-4.576 7.292-1.977 2.018-4.364 3.567-7.16 4.648-2.797 1.08-5.918 1.62-9.365 1.62-3.446 0-6.553-.54-9.321-1.62-2.769-1.08-5.141-2.63-7.119-4.648-1.977-2.019-3.502-4.45-4.576-7.292-1.073-2.843-1.61-6.026-1.61-9.551zM278.64 178.8v44.09h12.033v-25.584c0-2.16.31-3.909.932-5.245.622-1.336 1.37-2.36 2.246-3.07.876-.71 1.78-1.194 2.712-1.45.932-.256 1.68-.384 2.245-.384 1.921 0 3.376.327 4.365.98a5.436 5.436 0 0 1 2.118 2.602c.424 1.08.664 2.26.72 3.54.057 1.278.085 2.572.085 3.88v24.731h12.034v-24.56c0-1.365.099-2.716.296-4.052.198-1.336.593-2.53 1.187-3.582a7.085 7.085 0 0 1 2.457-2.558c1.045-.654 2.415-.98 4.11-.98 1.695 0 3.037.283 4.025.852.99.569 1.738 1.336 2.246 2.303.509.966.82 2.103.932 3.41a48.67 48.67 0 0 1 .17 4.18v24.987h12.033v-29.507c0-2.843-.395-5.273-1.186-7.292-.791-2.018-1.893-3.653-3.305-4.904-1.413-1.25-3.107-2.16-5.085-2.729-1.977-.568-4.124-.852-6.44-.852-3.05 0-5.692.739-7.924 2.217-2.231 1.478-3.997 3.184-5.296 5.117-1.186-2.73-2.924-4.634-5.212-5.714s-4.816-1.62-7.584-1.62c-2.881 0-5.438.625-7.67 1.876-2.23 1.25-4.138 3.013-5.72 5.287h-.169v-5.97H278.64v.001zm105.928 17.312c-.565-3.07-1.568-5.401-3.009-6.993-1.44-1.592-3.63-2.388-6.567-2.388-1.921 0-3.517.327-4.788.98-1.271.654-2.288 1.465-3.05 2.431-.764.967-1.3 1.99-1.61 3.07-.312 1.08-.495 2.047-.552 2.9h19.576zm-19.576 7.675c.17 3.923 1.158 6.766 2.966 8.528 1.808 1.763 4.407 2.644 7.797 2.644 2.429 0 4.52-.611 6.27-1.833 1.752-1.223 2.825-2.516 3.22-3.88h10.593c-1.694 5.287-4.293 9.068-7.796 11.342-3.503 2.274-7.74 3.411-12.711 3.411-3.446 0-6.554-.554-9.322-1.663-2.768-1.109-5.113-2.686-7.033-4.733-1.921-2.047-3.404-4.492-4.45-7.334-1.045-2.843-1.567-5.97-1.567-9.381 0-3.298.536-6.368 1.61-9.21 1.073-2.844 2.599-5.303 4.576-7.378 1.977-2.075 4.336-3.71 7.076-4.903 2.74-1.194 5.777-1.791 9.11-1.791 3.728 0 6.977.724 9.745 2.174 2.768 1.45 5.042 3.397 6.822 5.842 1.78 2.445 3.065 5.23 3.856 8.358.79 3.127 1.073 6.396.847 9.807h-31.609zm70.845-2.9c0-1.876-.198-3.667-.593-5.372-.396-1.706-1.017-3.212-1.865-4.52-.847-1.308-1.906-2.345-3.177-3.113-1.272-.767-2.811-1.151-4.619-1.151-1.751 0-3.277.384-4.576 1.151a9.65 9.65 0 0 0-3.22 3.113c-.848 1.308-1.47 2.814-1.865 4.52a23.721 23.721 0 0 0-.593 5.373c0 1.819.198 3.581.593 5.287.396 1.706 1.017 3.212 1.865 4.52a9.65 9.65 0 0 0 3.22 3.113c1.3.767 2.825 1.151 4.576 1.151 1.808 0 3.347-.384 4.619-1.151 1.27-.768 2.33-1.805 3.177-3.113.848-1.308 1.47-2.814 1.865-4.52.395-1.706.593-3.468.593-5.287v-.001zM403.72 162h12.033v22.173h.17c1.468-2.274 3.46-3.937 5.974-4.989a20.115 20.115 0 0 1 7.838-1.577c2.204 0 4.379.454 6.526 1.364 2.146.91 4.081 2.303 5.804 4.179 1.724 1.876 3.122 4.278 4.195 7.206 1.074 2.928 1.61 6.41 1.61 10.447 0 4.037-.536 7.52-1.61 10.447-1.073 2.928-2.471 5.33-4.195 7.207-1.723 1.876-3.658 3.269-5.804 4.178-2.147.91-4.322 1.365-6.526 1.365-3.22 0-6.101-.512-8.643-1.535-2.543-1.023-4.463-2.758-5.763-5.202h-.17v5.628h-11.44V162h.001zm51.777 16.8v44.091h12.034v-19.87c0-1.99.197-3.838.593-5.544.395-1.705 1.06-3.198 1.991-4.477.932-1.28 2.161-2.288 3.687-3.028 1.525-.739 3.39-1.108 5.593-1.108.734 0 1.497.042 2.288.128.79.085 1.468.185 2.033.298v-11.257c-.96-.284-1.836-.426-2.627-.426-1.525 0-2.994.227-4.406.682-1.41.454-2.75 1.1-3.983 1.919a15.022 15.022 0 0 0-3.305 2.985 14.911 14.911 0 0 0-2.288 3.795h-.17V178.8h-11.44zm62.455 17.313c-.565-3.07-1.567-5.401-3.008-6.993-1.44-1.592-3.63-2.388-6.568-2.388-1.92 0-3.516.327-4.787.98-1.272.654-2.289 1.465-3.051 2.431-.763.967-1.3 1.99-1.61 3.07-.311 1.08-.495 2.047-.551 2.9h19.575zm-19.575 7.675c.17 3.923 1.158 6.766 2.966 8.528 1.808 1.763 4.406 2.644 7.796 2.644 2.43 0 4.52-.611 6.271-1.833 1.751-1.223 2.825-2.516 3.22-3.88h10.593c-1.695 5.287-4.293 9.068-7.796 11.342-3.503 2.274-7.74 3.411-12.712 3.411-3.446 0-6.553-.554-9.321-1.663s-5.113-2.686-7.034-4.733c-1.92-2.047-3.404-4.492-4.449-7.334-1.045-2.843-1.568-5.97-1.568-9.381 0-3.298.537-6.368 1.61-9.21 1.074-2.844 2.6-5.303 4.577-7.378 1.977-2.075 4.336-3.71 7.076-4.903 2.74-1.194 5.776-1.791 9.11-1.791 3.728 0 6.977.724 9.745 2.174 2.768 1.45 5.042 3.397 6.822 5.842 1.78 2.445 3.064 5.23 3.855 8.358.791 3.127 1.074 6.396.848 9.807h-31.61.001zm88.81 19.103L601 178.801h-12.372l-8.05 29.848h-.17l-7.458-29.848h-11.694l-7.288 29.934h-.17l-8.05-29.934h-12.711l13.897 44.09h12.457l7.458-29.593h.17l7.796 29.593h12.372z" fill="#292620"/></g></svg>