<?xml version="1.0" encoding="utf-8"?>
<svg viewBox="50.019 24.74 117.721 74.855" width="117.721" height="74.855" xmlns="http://www.w3.org/2000/svg">
  <defs>
    <style>.cls-1,.cls-2{fill:#afb0b0;}.cls-1{fill-rule:evenodd;}</style>
  </defs>
  <path class="cls-1" d="M107,88.21c0,2.21.32,7.08-.89,8.88-.45.66-1.51,1.3-2.15.38-1.51-2.15,1.14-8.31,3-9.26Zm-1.79-13.48c1.19-.41,1.72.72,1.87,1.76.2,1.37-.38,2-.44,3.24-.23,5-3.21,7.72-3.77,3.79-.35-2.42-.08-8,2.35-8.79ZM93.92,75c1.74-.41,2,1.95,2,2.65-.11.9-.37-.39-.61,2.23a14.74,14.74,0,0,1-.94,4.74c-.49.92-2.22,2.45-2.71-.79-.36-2.38-.15-8.24,2.31-8.82Zm-7.85-7.4a4.57,4.57,0,0,0-2.61-.71,30.4,30.4,0,0,0-.3,4.35c-.07,1.12-.35.79-1.46.81a3.23,3.23,0,0,0-2,.37c-.06,1.31,2.36,1.15,3.24,1.52.07,3.55-.76,7.69.44,10.93.45,1.22,1.73,2.91,3.53,2.13,1.39-.6,1.88-2.4,2.38-3.44.94,3.16.94,3.1,3.46,3.6,1.86.36,2.8-2.09,3.34-3.6a5.68,5.68,0,0,0,.65,1.6,2.33,2.33,0,0,0,1.33,1c1.52.38,2.2-.78,2.82-1.47l.12-.12c.51,2.26,1.79,2.27,3.12,2.57,1.88.42,2.23-1.67,3-2.57-.2,3.85.13,2-1.36,3.61-.39.42-.77.72-1.13,1.18-1.78,2.3-4.3,8.1-1,9.6a7.36,7.36,0,0,0,4.08.37c1-.4,1.41-1.63,1.65-2.87.53-2.86,0-6,.26-8.89.7-.15,1.15.25,1.57-.45-.07-.78-.86-.78-1.59-.83,0-1.36,0-2.75,0-4.11.1-3,.52-2.58.58-3.36-.27-.24-.22-.16-.62-.29s-.34,0-.52-.37c-.36-.84.59-2.44-.35-3.71-.79-1.07-1.8-.84-3.07-1.45-2.7-1.29-3.88,1.52-4.38,3.79-.81,3.74.07,6.15-1.28,7.66s-1.69-1-1.74-2.05c-.18-3.8,1.27-3.76-.5-4.44-.27-1.81.29-3.11-1-4.28a10.76,10.76,0,0,0-1.83-.79,3.35,3.35,0,0,0-2.25-.36c-2.71.54-3.07,5-3.32,7.11-.11.94-.19-.24-.68,1.93-.8,3.57-2.51,4.78-3,2.27a53.91,53.91,0,0,1,.14-10c.25-.32,2.93-.48,3.51-.47s.76.22.93,0c1.07-1.44-3.72-1.18-4.45-1.43Z" style="fill: rgb(0, 0, 0);"/>
  <path class="cls-1" d="M123.89,75c1.58-.45,2,1.53,2,2.54,0,.65,0,.27-.3.69-.63.91,0,6.18-2.14,7.31s-2-3.82-1.91-5.28c.14-1.69.54-4.74,2.37-5.26Zm-13-1.08c-.05,1.58.18,3.22.13,4.87a22.12,22.12,0,0,1-.16,2.41,7,7,0,0,0-.26,2.07c1.14.4,1.35-1.69,1.5-2.62s.28-2.8.54-3.65a2.13,2.13,0,0,1,.64-.09c1.16.08.28,1.93.41,4.51.1,2,.85,6.42,3.7,5.36,1.1-.41,1.5-1.52,2-2.62.39.7.61,2.54,2.23,2.78s2.66.71,4-2.14c.1-.22.14-.37.23-.6a1.67,1.67,0,0,1,.15-.31.58.58,0,0,1,.19-.23,2.73,2.73,0,0,0,2.35,2.53c1.4.06,2.14-1.26,2.69-2.12.13.8,0,2.1.62,2.43a3.72,3.72,0,0,0,2.57.16c.31-.39.21-1.46.27-2s.16-1.31.27-2,.41-3,1-3.39c.31,2.28-.51,5.91,1,6.57a2.55,2.55,0,0,0,1.09.18c1.3,0,.88-.49,1.35-2.34.32-1.26,1.19-4.35,1.91-5.13,0,1.85-.33,3.16.05,5.11.66,3.38,3.62,4.41,5.43,1.12.32-.59,1.49-3.41.9-4.08-1-1-.88,2.27-1.81,3.59-.38.54-1.3,1.14-1.75.28a6.23,6.23,0,0,1-.4-2.33c-.16-5.68,1.79-5.34-.15-6.58a2.73,2.73,0,0,0-2.27-.44c-.49.27-2.45,6.5-2.79,7.07a.54.54,0,0,1-.15.2c0-1.41,0-2.84,0-4.25,0-.72.17-1.37-.36-1.73a2.46,2.46,0,0,0-1.72-.27c-.88.17-1.29,1.62-1.58,2.52-.19.57-.84,2.68-.9,3.1v-7.3a2.77,2.77,0,0,0-2.41-.48c-.13.34-.14,4.38-.16,5.1a6,6,0,0,1-.22,2.39c-.24.53-.35,1.33-.6,1.93-.73,1.79-1.94,1.73-2.21-.44a12.76,12.76,0,0,1,0-2.46,14.06,14.06,0,0,0,.35-2.15c-.35-.4-.41-.28-.87-.6-.21-1.09.08-2.33-.33-3.35-.51-1.25-1-1-2.17-1.51-.94-.41-1.73-.91-3-.39a3.34,3.34,0,0,0-1.77,1.91,10.52,10.52,0,0,0-.85,2.83c-.15.88-.19,2.59-.4,3.27-.43,1.39-.86,5.08-2.48,4.89-.93-.87-.8-3.23-.67-4.64a17.64,17.64,0,0,1,.37-2.4,9.72,9.72,0,0,0,.54-2.22c-.83-1.22-2.77-.49-3.89-1.07a10.72,10.72,0,0,0-.1-1.82A1.91,1.91,0,0,0,110.92,73.9Z" style="fill: rgb(0, 0, 0);"/>
  <path class="cls-1" d="M74.8,83.6a7.88,7.88,0,0,0,.62-2.9c.7.8,3.39,2.42,3.71,3.39.42,1.29-1.31,1.31-2.14.86a6.81,6.81,0,0,1-1-.75c-.57-.47-.63-.31-1.16-.59Zm-6.94,2.31c.41-1.14.85-5.57,2-6.51.14,2.4-.79,6.33,2.3,6.21a3.17,3.17,0,0,0,2-1,2.55,2.55,0,0,0,1.62,1.21c2.12.71,6.5.4,6-1.93-.41-2-6.33-3.8-4.29-6.54a1.78,1.78,0,0,1,2-.47c.09.06,1,1.19,1.78,0,.35-.52.76-1.68.25-2.22-1-1-4.93,0-6.4,1.43s-1,2.8,0,4.24c-1.09.3-.34.2-1,2.16-.31.86-.7,1.69-1.71,1.52-.85-1.35-.23-4-.34-5.91-.06-1.11-.49-2.44-1.78-2.07-1.05.3-2.2,3.58-2.72,4.89-.1-1.35.09-5.52,0-6.18s-1.9-1.06-2.15-.67c-.15.23-.42,8.22-.45,8.87a5.7,5.7,0,0,0,.38,2.73C65.75,86.29,67.13,86.11,67.86,85.91Z" style="fill: rgb(0, 0, 0);"/>
  <path class="cls-1" d="M60.36,78.44c-2.17.44-2.68-1.31-2.91-3.25-.62-5.2,2.05-7.22,2.94-5.79.3.49,0,2,0,2.74,0,2.09,0,4.21,0,6.3Zm0,2a5.65,5.65,0,0,1-1.82,4.19,5.05,5.05,0,0,1-4.67,1.14c-2.08-.49-2.62-2.46-1.93-3.53.41-.63,1-.94,1.33-1.72,1.19-2.88-3.2-2.52-3.25,1.66s3.15,5.35,6.8,5.13c6.62-.4,6.27-6.48,6.27-11.75,0-2,0-4,0-6,0-3.73.11-2.75-2.64-3.1a2.26,2.26,0,0,0-2.27.69C54.68,70.79,53.8,80.76,60.33,80.49Z" style="fill: rgb(0, 0, 0);"/>
  <path class="cls-1" d="M83.93,24.74H113.2a5.07,5.07,0,0,1,5.05,5.05V59.07a5.07,5.07,0,0,1-5.05,5.05H83.93a5.07,5.07,0,0,1-5.05-5.05V29.8a5.07,5.07,0,0,1,5.05-5.05Zm23.63,4.38a1.78,1.78,0,0,0-1.77,1.77v4.24a1.78,1.78,0,0,0,1.77,1.77H112a1.78,1.78,0,0,0,1.77-1.77V30.89A1.78,1.78,0,0,0,112,29.12ZM113.8,41.4h-3.47a11.52,11.52,0,0,1,.5,3.38,12.25,12.25,0,0,1-24.48,0,11.52,11.52,0,0,1,.5-3.38H83.25V58a1.57,1.57,0,0,0,1.57,1.57h27.42A1.57,1.57,0,0,0,113.8,58V41.4ZM98.6,36.68a7.67,7.67,0,1,0,7.91,7.66A7.79,7.79,0,0,0,98.6,36.68Z"/>
  <path class="cls-2" d="M114.48,99.44V94.85h-.75v-.74h.75v-.25a2.51,2.51,0,0,1,.62-1.86,1.85,1.85,0,0,1,1.3-.5,2.25,2.25,0,0,1,.83.15l-.13.75a1.46,1.46,0,0,0-.62-.12c-.83,0-1,.73-1,1.54v.29h1.29v.74h-1.29v4.59Z"/>
  <path class="cls-2" d="M122.27,96.73a2.6,2.6,0,0,1-2.65,2.83,2.53,2.53,0,0,1-2.55-2.74A2.6,2.6,0,0,1,119.7,94,2.52,2.52,0,0,1,122.27,96.73Zm-4.22.05c0,1.17.67,2,1.62,2s1.62-.87,1.62-2.07c0-.9-.45-2-1.6-2S118,95.77,118,96.79Z"/>
  <path class="cls-2" d="M123.49,95.77c0-.63,0-1.17,0-1.66h.85l0,1h0A1.6,1.6,0,0,1,125.84,94a1.07,1.07,0,0,1,.28,0v.91a1.49,1.49,0,0,0-.33,0,1.36,1.36,0,0,0-1.3,1.24,2.66,2.66,0,0,0,0,.45v2.84h-1Z"/>
  <path class="cls-2" d="M129.37,99.44c0-.36,0-.9,0-1.37V91.63h1V95h0a2,2,0,0,1,1.82-1c1.32,0,2.25,1.1,2.24,2.72,0,1.9-1.2,2.85-2.39,2.85a1.9,1.9,0,0,1-1.78-1h0l0,.88Zm1-2.13a1.79,1.79,0,0,0,0,.35,1.49,1.49,0,0,0,1.45,1.13c1,0,1.62-.83,1.62-2,0-1.07-.55-2-1.58-2a1.54,1.54,0,0,0-1.47,1.19,1.87,1.87,0,0,0-.05.4Z"/>
  <path class="cls-2" d="M140.13,98c0,.55,0,1,0,1.45h-.86l-.05-.87h0a2,2,0,0,1-1.76,1c-.84,0-1.84-.46-1.84-2.33V94.11h1v2.95c0,1,.31,1.69,1.19,1.69a1.37,1.37,0,0,0,1.36-1.38V94.11h1Z"/>
  <path class="cls-2" d="M141.6,98.45a2.53,2.53,0,0,0,1.28.38c.7,0,1-.35,1-.79s-.28-.71-1-1c-1-.34-1.41-.87-1.41-1.51A1.64,1.64,0,0,1,143.35,94a2.66,2.66,0,0,1,1.31.33l-.24.7a2.07,2.07,0,0,0-1.09-.31c-.57,0-.89.33-.89.73s.32.64,1,.9c.92.35,1.4.81,1.4,1.61s-.73,1.6-2,1.6a3,3,0,0,1-1.5-.36Z"/>
  <path class="cls-2" d="M147.17,92.62a.6.6,0,0,1-1.2,0,.59.59,0,0,1,.61-.6A.57.57,0,0,1,147.17,92.62Zm-1.08,6.82V94.11h1v5.33Z"/>
  <path class="cls-2" d="M148.67,95.55c0-.55,0-1,0-1.44h.86l.05.88h0a2,2,0,0,1,1.76-1c.74,0,1.88.44,1.88,2.27v3.18h-1V96.37c0-.86-.32-1.57-1.23-1.57a1.38,1.38,0,0,0-1.3,1,1.4,1.4,0,0,0-.07.45v3.2h-1Z"/>
  <path class="cls-2" d="M155.31,97a1.71,1.71,0,0,0,1.83,1.85,3.5,3.5,0,0,0,1.47-.28l.17.69a4.32,4.32,0,0,1-1.77.33,2.47,2.47,0,0,1-2.62-2.68,2.58,2.58,0,0,1,2.5-2.87,2.26,2.26,0,0,1,2.2,2.51,3.69,3.69,0,0,1,0,.45Zm2.84-.69a1.38,1.38,0,0,0-1.34-1.57,1.6,1.6,0,0,0-1.49,1.57Z"/>
  <path class="cls-2" d="M160.15,98.45a2.53,2.53,0,0,0,1.28.38c.7,0,1-.35,1-.79s-.28-.71-1-1c-1-.34-1.41-.87-1.41-1.51A1.64,1.64,0,0,1,161.9,94a2.66,2.66,0,0,1,1.31.33L163,95a2.07,2.07,0,0,0-1.09-.31c-.57,0-.89.33-.89.73s.32.64,1,.9c.92.35,1.4.81,1.4,1.61s-.73,1.6-2,1.6a3,3,0,0,1-1.5-.36Z"/>
  <path class="cls-2" d="M164.51,98.45a2.53,2.53,0,0,0,1.28.38c.7,0,1-.35,1-.79s-.28-.71-1-1c-1-.34-1.41-.87-1.41-1.51A1.64,1.64,0,0,1,166.25,94a2.66,2.66,0,0,1,1.31.33l-.24.7a2.07,2.07,0,0,0-1.09-.31c-.57,0-.89.33-.89.73s.32.64,1,.9c.92.35,1.4.81,1.4,1.61s-.73,1.6-2,1.6a3,3,0,0,1-1.5-.36Z"/>
</svg>