<svg width="640" height="384" viewBox="0 0 640 384" xmlns="http://www.w3.org/2000/svg"><title>jinja2-logo</title><g fill-rule="nonzero" fill="none"><path d="M310.194 139.708c1.573 0 3.106-.04 4.6-.118 1.493-.079 3.105-.177 4.835-.295s3.144-.216 4.245-.295c.157.472.236 1.061.236 1.769 0 1.1-.157 1.65-.472 1.65-.786 0-2.201.276-4.245.826-2.044.55-3.145 1.101-3.302 1.651-.708 2.752-1.062 6.408-1.062 10.968v51.18c0 9.906-2.77 18.515-8.314 25.827-5.542 7.311-12.598 10.967-21.168 10.967-.864 0-1.808-.157-2.83-.472-1.022-.314-1.847-.629-2.476-.943l-.826-.472c-.943-1.1-1.415-2.555-1.415-4.363 0-1.73.727-3.145 2.182-4.246 1.454-1.1 3.164-1.65 5.13-1.65 1.415 0 3.007.844 4.776 2.535 1.769 1.69 3.164 2.535 4.186 2.535 1.1 0 2.221-.55 3.361-1.65 1.14-1.101 2.26-2.713 3.36-4.836 1.102-2.123 2.006-5.13 2.713-9.021.708-3.892 1.062-8.314 1.062-13.267v-52.596c0-4.874-.276-8.373-.826-10.496-.236-.629-1.356-1.199-3.36-1.71-2.006-.51-3.519-.766-4.541-.766-.315 0-.472-.511-.472-1.533 0-.944.157-1.573.472-1.887 1.022.079 3.105.216 6.25.413 3.145.196 5.779.295 7.901.295zm26.839 11.615c-1.14-1.14-1.71-2.535-1.71-4.186 0-1.651.57-3.046 1.71-4.186 1.14-1.14 2.535-1.71 4.186-1.71 1.651 0 3.047.57 4.187 1.71 1.14 1.14 1.71 2.535 1.71 4.186 0 1.651-.57 3.046-1.71 4.186-1.14 1.14-2.536 1.71-4.187 1.71-1.65 0-3.046-.57-4.186-1.71zm9.61 49.825c0 4.56.315 8.058.944 10.496.157.55 1.18 1.08 3.066 1.592 1.887.51 3.224.766 4.01.766.236 0 .393.472.472 1.415.078.944.039 1.612-.118 2.005-7.862-.393-12.068-.59-12.619-.59-.55 0-4.835.197-12.854.59-.314-.314-.471-.963-.471-1.946s.157-1.474.471-1.474c.944 0 2.34-.255 4.187-.766 1.847-.511 2.85-1.042 3.007-1.592.55-2.28.825-5.032.825-8.255V181.1c0-3.066-.55-5.189-1.65-6.368a6.018 6.018 0 0 0-2.89-1.946c-1.14-.353-2.083-.53-2.83-.53-.747 0-1.12-.079-1.12-.236 0-1.887.235-2.87.707-2.948 8.334-1.258 13.758-2.28 16.274-3.067l.236-.117h.354c.314 0 .51.334.59 1.002.078.668.078 1.16 0 1.474-.394 3.145-.59 5.975-.59 8.49v24.294h-.001zm46.474-35.732c5.503 0 9.356 1.965 11.557 5.896 2.201 3.931 3.302 10.3 3.302 19.105v10.731c0 4.56.315 8.058.943 10.496.158.55 1.18 1.08 3.067 1.592 1.886.51 3.223.766 4.01.766.235 0 .392.472.47 1.415.08.944.04 1.612-.117 2.005-7.862-.393-12.068-.59-12.618-.59-.158 0-4.285.197-12.383.59-.314-.314-.471-.963-.471-1.946s.157-1.474.471-1.474c.944 0 2.26-.255 3.95-.766 1.691-.511 2.615-1.042 2.772-1.592.55-2.28.826-5.032.826-8.255v-11.793c0-7.312-.944-12.304-2.83-14.977-1.888-2.673-4.954-4.01-9.199-4.01-2.516 0-4.933.924-7.253 2.772-2.319 1.847-3.478 3.518-3.478 5.012v20.755c0 4.56.314 8.058.943 10.496.157.55 1.18 1.08 3.066 1.592 1.887.51 3.223.766 4.01.766.235 0 .393.472.471 1.415.079.944.04 1.612-.118 2.005-7.861-.393-12.068-.59-12.618-.59-.472 0-4.756.197-12.854.59-.314-.314-.472-.963-.472-1.946s.158-1.474.472-1.474c.943 0 2.339-.255 4.186-.766 1.848-.511 2.85-1.042 3.008-1.592.55-2.28.825-5.032.825-8.255V181.1c0-3.066-.55-5.189-1.65-6.368a6.018 6.018 0 0 0-2.89-1.946c-1.14-.353-2.084-.53-2.83-.53-.747 0-1.12-.079-1.12-.236 0-1.887.235-2.87.707-2.948 8.333-1.258 13.758-2.28 16.274-3.067.079 0 .196-.02.354-.058l.236-.06c.314 0 .51.335.59 1.003.078.668.078 1.16 0 1.474-.315 2.201-.473 3.774-.473 4.717 0 .315.08.472.236.472.079 0 .197-.079.354-.236 1.808-1.887 4.265-3.675 7.37-5.366 3.106-1.69 6.074-2.535 8.904-2.535zm34.445 15.684c0-3.066-.55-5.189-1.651-6.368a6.018 6.018 0 0 0-2.89-1.946c-1.14-.353-2.083-.53-2.83-.53-.747 0-1.12-.079-1.12-.236 0-1.887.236-2.87.708-2.948 8.333-1.258 13.758-2.28 16.274-3.067.078 0 .196-.02.353-.058l.236-.06c.315 0 .511.335.59 1.003.079.668.079 1.16 0 1.474-.393 3.145-.59 5.975-.59 8.49v32.195c0 9.985-1.533 17.375-4.599 22.17-1.965 3.067-4.461 5.779-7.488 8.138-3.027 2.358-5.798 4.01-8.314 4.953-.708-.472-1.219-1.062-1.533-1.77-.158-.392-.158-.668 0-.825l1.415-.707c.943-.472 2.024-1.298 3.243-2.477 1.218-1.18 2.457-2.752 3.715-4.717 1.257-1.965 2.319-4.874 3.184-8.727.864-3.852 1.297-8.294 1.297-13.326V181.1zm-1.356-29.777c-1.14-1.14-1.71-2.535-1.71-4.186 0-1.651.57-3.046 1.71-4.186 1.14-1.14 2.535-1.71 4.186-1.71 1.651 0 3.047.57 4.187 1.71 1.14 1.14 1.71 2.535 1.71 4.186 0 1.651-.57 3.046-1.71 4.186-1.14 1.14-2.536 1.71-4.187 1.71-1.65 0-3.046-.57-4.186-1.71zm33.796 58.139c1.336 1.14 3.066 1.71 5.189 1.71 2.122 0 4.166-.649 6.132-1.946 1.965-1.297 2.948-2.614 2.948-3.95v-12.147c-.629.314-2.162.865-4.6 1.65-2.436.787-4.343 1.475-5.719 2.065-1.375.59-2.712 1.572-4.01 2.948-1.296 1.376-1.945 2.968-1.945 4.776 0 2.123.668 3.754 2.005 4.894zm11.085-43.81c4.324 0 7.43 1.041 9.316 3.125 1.887 2.083 2.83 5.444 2.83 10.083v27.24c0 1.652.433 3.028 1.298 4.128.865 1.101 2.044 1.651 3.538 1.651 1.1 0 2.476-.55 4.127-1.65.315 0 .472.314.472.943 0 1.022-.197 1.847-.59 2.476-3.223 2.752-5.975 4.128-8.255 4.128-1.808 0-3.538-.747-5.189-2.24-1.65-1.495-2.79-3.067-3.42-4.718-.078 0-.373.256-.884.767-.511.51-1.199 1.1-2.064 1.769a35.893 35.893 0 0 1-3.007 2.063c-1.14.708-2.476 1.297-4.01 1.77a15.757 15.757 0 0 1-4.658.707c-3.616 0-6.604-.963-8.962-2.89-2.359-1.926-3.538-4.815-3.538-8.667 0-1.73.432-3.361 1.297-4.894s1.887-2.791 3.066-3.774c1.18-.983 2.791-1.985 4.835-3.007 2.045-1.022 3.794-1.789 5.248-2.3 1.455-.51 3.361-1.16 5.72-1.945 2.358-.787 4.01-1.376 4.953-1.77.707-.235 1.061-.825 1.061-1.768v-8.845c0-2.516-.786-4.461-2.359-5.837-1.572-1.376-3.459-2.064-5.66-2.064-2.359 0-4.324.806-5.896 2.417-1.573 1.612-2.359 3.715-2.359 6.31 0 2.751-1.612 4.127-4.835 4.127-2.201 0-3.734-.747-4.6-2.24 0-3.381 2.477-6.742 7.43-10.083 4.953-3.342 9.985-5.012 15.095-5.012zm75.73-24.293c5.267 0 9.414 1.965 12.44 5.896 3.027 3.93 4.54 8.373 4.54 13.326 0 2.909-.49 5.916-1.473 9.021-.983 3.106-2.516 6.27-4.6 9.493a255.33 255.33 0 0 1-5.66 8.432c-1.69 2.398-4.03 5.17-7.017 8.314-2.055 2.17-4.119 4.332-6.19 6.486-1.14 1.18-2.969 2.988-5.485 5.425-.235.393-.157.668.236.825h22.76c2.202 0 3.794-.629 4.776-1.886.983-1.258 1.986-3.656 3.008-7.194.314-.865.864-1.297 1.65-1.297 1.023 0 1.73.157 2.123.471-1.887 9.435-2.948 14.938-3.184 16.51-.157 1.258-.943 1.887-2.358 1.887h-38.68c-.315 0-.61-.452-.885-1.356-.275-.904-.413-1.631-.413-2.182 8.57-8.648 15.92-17.63 22.053-26.946 6.132-9.316 9.198-17.198 9.198-23.645 0-4.245-1.061-7.527-3.184-9.847-2.123-2.319-4.914-3.478-8.373-3.478-6.525 0-11.753 3.262-15.684 9.788-.472 0-.963-.256-1.474-.767s-.767-.884-.767-1.12c.236-.944.885-2.221 1.946-3.833s2.476-3.38 4.245-5.307c1.77-1.926 4.128-3.577 7.076-4.953 2.948-1.376 6.073-2.063 9.375-2.063h.001z" fill="#B80000"/><path d="M161.602 271.297c.3-3.202.599-7.505.799-9.506.3-2.802 0-3.802-1-3.802-.798 0-1.398-1-1.398-2.402 0-1.3-.3-3.802-.599-5.503-.6-2.701-.3-3.302 1.498-3.802 1.998-.5 2.098-1.1 2.098-13.408 0-10.806-.2-12.908-1.498-12.908-1 0-1.499-1-1.499-2.701 0-1.601-.3-4.503-.599-6.504-.6-3.402-.4-3.802 1.498-3.802 1.599 0 2.098-.6 2.098-2.502 0-1.8-.5-2.501-1.898-2.501-1.099 0-2.098-.5-2.297-1.1-.2-.501-1.698.3-3.297 2-1.698 1.701-3.596 3.102-4.195 3.102-1.898 0-1.598 5.003.2 5.003 1.099 0 1.498 1.2 1.498 5.003 0 4.002-.3 5.003-1.698 5.003s-1.498 1.2-.899 10.706c.3 5.904 1.099 11.007 1.598 11.307.7.4.8 5.303.4 14.308l-.7 13.708h-12.885l.3-8.505c.4-9.305.2-9.505-5.794-7.904-2.198.6-2.297 1.2-2.297 9.005v8.405h-10.489c-5.793 0-10.488-.2-10.488-.5 0-.4 1.598-8.505 2.597-13.208.4-2.201.2-2.301-6.693-2.301-6.892 0-7.092.1-6.592 2.301.3 1.2.899 5.003 1.298 8.505l.7 6.204H87.083v-8.906c0-5.003-.4-9.105-.999-9.305-.499-.1-1.298-2.401-1.598-4.903-.6-4.202-.4-4.803 1.499-5.403 1.997-.6 2.097-1.3 2.097-12.608 0-7.304-.4-11.907-.999-11.907-.5 0-.999-1.3-.999-2.901 0-1.701-.4-3.302-.998-3.602-1.699-1.101-1.1-3.703.998-4.203 1.299-.3 1.998-1.4 1.998-2.902 0-1.7-.6-2.401-1.998-2.401-1.098 0-1.997-.6-1.997-1.3 0-.701-.9-1.802-1.998-2.502-3.197-2.001-2.397-3.002 4.495-5.003 6.393-2.001 6.493-2.001 14.484 0 8.09 2.101 9.39 3.402 5.194 5.303-1.199.5-2.198 1.5-2.198 2.201 0 .7-.899 1.301-1.997 1.301-1.399 0-1.998.7-1.998 2.401 0 2.702 2.797 3.603 11.088 3.603h4.894v-6.204c0-3.502.3-10.106.7-14.709l.599-8.405-11.088.7-11.188.601-.2-4.503c-.399-10.106-1.398-9.005 8.192-8.705 8.09.3 8.69.2 11.786-2.501 3.097-2.602 3.197-3.002 1.998-5.503-.899-2.002-1.798-2.602-3.096-2.202-.9.3-5.794.2-10.688-.2l-8.99-.7-1.1-3.602c-.798-2.702-1.897-4.103-3.995-4.803-1.598-.6-2.897-1.801-2.897-2.702 0-1.2-.998-1.6-3.695-1.7-9.29-.2-12.087-3.803-6.293-7.905 2.497-1.801 2.996-2.802 2.597-4.603-.3-1.3-.9-3.502-1.199-4.803l-.6-2.501 9.39 3.101c7.392 2.402 11.687 3.102 21.077 3.502 20.078.901 76.015-3.502 92.397-7.204 9.29-2.101 29.467-8.905 40.355-13.608 9.69-4.102 11.288-4.502 12.287-2.901.899 1.5-1.399 7.804-3.097 8.805-1.199.7-1.099 1.7 1.099 6.504 1.398 3.201 2.497 6.403 2.497 7.204 0 .9-2.597 2.201-7.192 3.602-3.995 1.2-8.19 2.802-9.29 3.602-1.098.7-2.697 1.3-3.496 1.3-.999 0-2.197 1.702-3.096 4.303l-1.598 4.203-8.89 1.7c-4.895.901-10.988 2.002-13.586 2.302-4.195.6-4.794.9-4.794 3.102 0 1.3-.4 2.401-1 2.401-2.297 0-.798 1.801 2.798 3.402 3.596 1.601 4.695 1.601 13.785.3 5.394-.8 10.488-1.2 11.187-1 .9.4 1.099 2.001.7 5.703-1.2 10.206 0 9.306-13.685 10.106-6.793.4-13.386 1.201-14.684 1.601-2.298.9-2.298 1.2-1.698 7.705 1.198 11.507 3.596 23.614 4.894 24.414.6.4 3.396.8 6.094.8 3.995 0 4.694-.3 4.195-1.6-.3-.9-.6-2.002-.6-2.502s-.898-.9-1.997-.9c-1.1 0-1.998-.6-1.998-1.401 0-.7-1.099-2.101-2.497-3.002-1.399-.9-2.498-2.001-2.498-2.501s3.197-1.701 7.093-2.602c6.592-1.5 7.791-1.5 15.283.1 4.395.9 8.29 1.801 8.39 1.901.2.2-.999 1.1-2.697 2.001-1.698.8-3.096 2.202-3.096 3.002 0 .9-1 1.501-2.497 1.501-2.098 0-2.498.5-2.498 3.002 0 2.101.5 3.002 1.599 3.002 1.298 0 1.498.6.998 2.801-.4 1.501-.899 8.905-1.298 16.61-.5 10.806-.3 14.008.7 14.609 1.597 1 1.497 9.705-.1 11.706-.8.901-.8 3.402 0 8.906.599 4.302.998 7.904.698 8.104-.899 1.001-7.79 1.501-11.187.901l-3.696-.7.7-8.605.698-8.606-2.297.7c-1.299.301-3.197.601-4.195.601-1.699 0-1.798.6-1.299 5.303.4 2.802.9 6.804 1.299 8.806.599 3.602.599 3.602-3.197 4.202-4.994.9-11.287.9-15.383 0l-3.296-.6.7-8.405.598-8.305h-9.089l.599 8.305c.4 4.502.799 8.805.999 9.505.3.9-1.798 1.201-8.49 1.201h-8.89l.499-5.703h.001zm22.674-37.522c-.3-6.804-.599-12.408-.699-12.508 0 0-1.798-.4-3.796-.8l-3.795-.7v26.215h8.89l-.6-12.207zm27.47 10.606c2.098-.6 2.197-1.1 2.197-12.007v-11.407h-10.588l.7 6.804c.499 3.702.798 9.105.798 12.007.1 4.703.3 5.203 2.398 5.203 1.199 0 3.196-.3 4.495-.6zm-99.69-1.2c1.2-.601 1.499-2.803 1.599-10.707.1-6.204-.3-10.306-1-10.706-.598-.4-3.895-.801-7.291-.801h-6.293v23.014l5.794-.1c3.096 0 6.392-.3 7.192-.7h-.001zm26.97-11.207v-11.007h-5.593c-5.394 0-5.594.1-4.995 2.301.3 1.201.6 6.104.6 11.007v8.705h9.989v-11.006h-.001zm0-23.014c0-1.1-.699-2.001-1.498-2.001s-1.498-.7-1.498-1.501c0-.8-.5-1.501-1.099-1.501-1.198 0-3.796-2.902-3.895-4.102 0-.4 2.896-1.201 6.492-1.901 6.094-1.201 14.085-.801 18.28.7 1.498.6 1.498.5.3-1-2.298-2.902-.6-4.303 6.792-5.704 6.093-1.1 7.991-1.1 14.284.3 3.996.9 7.492 1.3 7.792 1.1.3-.3.699-4.202.899-8.604l.3-8.005-3.797.6c-2.197.3-14.683 1.101-27.869 1.701-13.185.6-24.173 1.401-24.472 1.601-.3.3-.7 7.205-.8 15.41l-.399 14.908h5.094c4.395 0 5.095-.3 5.095-2.001h-.001zm45.95-6.604c0-5.903-.1-6.404-1.599-5.003-.799.9-1.997 1.601-2.497 1.601-.5 0-.899.7-.899 1.501 0 .8-.899 1.5-1.998 1.5-1.498 0-1.997.701-1.997 2.903 0 3.101 1.098 3.802 6.293 4.002 2.697.1 2.697.1 2.697-6.504zm-37.958-35.921c0-.2-.5-2.602-1-5.203l-1.098-4.803-6.393.3c-5.594.3-6.493.6-6.493 2.202 0 1.1-.799 2.401-1.698 3.001-1.098.7-1.398 1.301-.699 1.601.6.3 1.998 1.1 2.997 1.901 1.698 1.301 14.384 2.202 14.384 1.001zm35.86-5.203c4.295-3.002 5.094-4.303 2.597-4.303-.8 0-1.498-.9-1.498-2.1 0-1.802-.4-2.002-4.695-1.402-10.289 1.401-9.989 1.101-11.088 6.704l-.999 5.103 5.894-.7c3.995-.4 7.092-1.401 9.789-3.302z" fill="#3A3A3A"/></g></svg>