<svg width="640" height="384" viewBox="0 0 640 384" xmlns="http://www.w3.org/2000/svg"><title>json-logo</title><defs><linearGradient x1="11.68%" y1="13.768%" x2="11.68%" y2="90.119%" id="a"><stop stop-color="#6B6B6B" offset="0%"/><stop stop-color="#303030" offset="100%"/></linearGradient><linearGradient x1="15.791%" y1="14.737%" x2="91.009%" y2="85.228%" id="b"><stop offset="0%"/><stop stop-color="#FFF" offset="100%"/></linearGradient><linearGradient x1="82.136%" y1="85.237%" x2="-3.113%" y2="14.79%" id="c"><stop offset="0%"/><stop stop-color="#FFF" offset="100%"/></linearGradient></defs><g fill="none" fill-rule="evenodd"><path d="M44.626 152.903h-3.672c-8.458 0-15.19-2.476-20.198-7.429-5.008-4.952-7.512-11.656-7.512-20.114V98.318c0-10.349-4.117-15.524-12.352-15.524V70.108c8.235 0 12.352-5.174 12.352-15.524V27.542c0-8.457 2.504-15.162 7.512-20.114C25.764 2.476 32.496 0 40.954 0h3.672v12.686h-2.504c-9.904 0-14.856 5.62-14.856 16.86v27.709c-.111 9.904-3.95 16.192-11.518 18.862v.668c7.456 2.448 11.295 8.569 11.518 18.362v28.21c0 11.24 4.952 16.86 14.856 16.86h2.504v12.686zm46.49-17.714c-9.014 0-16.804-2.449-23.37-7.345-6.565-4.897-11.183-11.685-13.854-20.365l14.522-6.01c3.784 12.687 11.351 19.03 22.702 19.03 6.232 0 11.267-2.198 15.107-6.593 3.839-4.396 5.759-10.1 5.759-17.11V13h15.357v82.46c0 12.353-3.255 22.062-9.765 29.129-6.51 7.066-15.33 10.6-26.458 10.6zm132.569-34.883c0 10.46-3.84 18.862-11.518 25.206-7.79 6.231-17.249 9.347-28.377 9.347-9.904 0-18.64-2.893-26.207-8.68s-12.798-13.688-15.691-23.703l14.69-6.01c1 3.562 2.392 6.789 4.172 9.682 1.781 2.894 3.867 5.37 6.26 7.428a28.372 28.372 0 0 0 7.929 4.841c2.893 1.169 5.954 1.753 9.18 1.753 7.012 0 12.743-1.808 17.194-5.425 4.451-3.617 6.677-8.43 6.677-14.439 0-5.008-1.836-9.292-5.509-12.853-3.45-3.45-9.904-6.788-19.363-10.016-9.57-3.45-15.524-5.786-17.86-7.01-12.687-6.455-19.03-15.97-19.03-28.544 0-8.792 3.505-16.303 10.516-22.535C163.87 13.116 172.606 10 182.955 10c9.126 0 17.027 2.337 23.704 7.01 6.677 4.563 11.128 10.294 13.354 17.194l-14.356 6.01c-1.335-4.452-3.978-8.152-7.929-11.101-3.95-2.95-8.763-4.424-14.439-4.424-6.01 0-11.072 1.67-15.19 5.008-4.117 3.116-6.176 7.178-6.176 12.186 0 4.117 1.613 7.678 4.84 10.683 3.562 3.004 11.296 6.565 23.203 10.683 12.13 4.117 20.782 9.153 25.957 15.106 5.175 5.954 7.762 13.27 7.762 21.951zm197.564 32.212h-15.357V13h18.696l58.09 92.977h.667l-.668-23.036V13h15.357v119.518H482.01l-60.76-97.484h-.668l.668 23.036v74.448zm97.643 20.385v-12.687h2.504c9.904 0 14.856-5.62 14.856-16.859v-28.21c.223-9.793 4.062-15.914 11.518-18.362v-.668c-7.567-2.67-11.407-8.958-11.518-18.862v-27.71c0-11.239-4.952-16.859-14.856-16.859h-2.504V0h3.672c8.458 0 15.19 2.476 20.198 7.428 5.008 4.952 7.512 11.657 7.512 20.114v27.042c0 10.35 4.117 15.524 12.352 15.524v12.686c-8.235 0-12.352 5.175-12.352 15.524v27.042c0 8.458-2.504 15.162-7.512 20.114-5.008 4.953-11.74 7.429-20.198 7.429h-3.672z" fill="url(#a)" transform="translate(39 116)"/><path d="M71.928 107.1c31.88 43.43 63.079-12.121 63.033-45.528C134.907 22.075 94.847 0 71.901 0 35.074 0 0 30.416 0 72.032c0 46.257 40.204 71.879 71.902 71.879-7.173-1.032-31.077-6.15-31.399-61.17-.216-37.212 12.148-52.08 31.347-45.54.43.16 21.177 8.339 21.177 35.056 0 26.604-21.1 34.843-21.1 34.843z" fill="url(#b)" transform="translate(281 121)"/><path d="M72.088 37.26c-21.065-7.255-46.87 10.095-46.87 44.847C25.217 138.85 67.294 144 72.395 144c36.828 0 71.901-30.416 71.901-72.032 0-46.257-40.204-71.879-71.901-71.879 8.779-1.215 47.32 9.495 47.32 62.133 0 34.327-28.778 53.015-47.496 45.03-.43-.159-21.177-8.338-21.177-35.055 0-26.604 21.045-34.936 21.045-34.936z" fill="url(#c)" transform="translate(281 121)"/></g></svg>