<svg width="640" height="384" viewBox="0 0 640 384" xmlns="http://www.w3.org/2000/svg"><title>aria-logo</title><g fill="none" fill-rule="evenodd"><rect fill="#005A9C" x="46" y="148.152" width="140.415" height="88.696" rx="12.88"/><path d="M88.608 168.89l8.664 29.443 8.663-29.444h23.487v2.927l-8.844 15.23c3.107.996 5.457 2.809 7.05 5.436 1.593 2.628 2.39 5.712 2.39 9.256 0 4.382-1.166 8.064-3.496 11.05-2.331 2.984-5.348 4.478-9.051 4.478-2.79 0-5.218-.885-7.288-2.657-2.072-1.772-3.605-4.17-4.6-7.197l4.898-2.03c.717 1.831 1.663 3.275 2.839 4.329 1.175 1.055 2.559 1.583 4.152 1.583 1.671 0 3.086-.936 4.241-2.806 1.156-1.872 1.734-4.12 1.734-6.75 0-2.908-.618-5.158-1.851-6.75-1.437-1.87-3.687-2.807-6.753-2.807h-2.389v-2.866l8.363-14.455h-10.094l-.574.978-12.28 41.42h-.597l-8.963-29.98-8.96 29.98h-.598l-14.336-48.37h6.273l8.663 29.443 5.856-19.826-2.867-9.617h6.27v-.002l-.002.003zm73.625-.004c-1.24 0-2.354.447-3.198 1.305-.895.91-1.393 2.086-1.393 3.301 0 1.216.474 2.342 1.343 3.226.883.896 2.02 1.383 3.248 1.383 1.201 0 2.367-.486 3.273-1.368.869-.845 1.343-1.971 1.343-3.238 0-1.229-.486-2.38-1.33-3.238-.874-.898-2.026-1.37-3.282-1.37h-.004zm4.002 4.646a3.826 3.826 0 0 1-1.162 2.777c-.794.769-1.779 1.178-2.866 1.178a3.925 3.925 0 0 1-2.787-1.19c-.754-.769-1.177-1.753-1.177-2.802 0-1.05.435-2.073 1.215-2.866.728-.743 1.712-1.138 2.786-1.138 1.1 0 2.084.411 2.852 1.19.746.74 1.142 1.736 1.142 2.851h-.003zm-3.874-2.74h-1.968v5.223h.985v-2.227h.972l1.062 2.227h1.1l-1.165-2.38c.753-.154 1.19-.665 1.19-1.407.005-.947-.716-1.435-2.172-1.435h-.004zm-.18.641c.92 0 1.342.256 1.342.896 0 .613-.421.832-1.318.832h-.832v-1.728h.808zm-6.735-2.547l1.045 6.055-3.698 6.746s-1.419-2.862-3.777-4.445c-1.986-1.334-3.281-1.624-5.306-1.226-2.6.511-5.547 3.475-6.834 7.129-1.539 4.37-1.554 6.487-1.609 8.43-.086 3.117.429 4.957.429 4.957s-2.246-3.96-2.224-9.76c.014-4.141.697-7.895 2.706-11.6 1.768-3.257 4.395-5.213 6.728-5.442 2.41-.237 4.315.87 5.788 2.069 1.545 1.26 3.108 4.011 3.108 4.011l3.635-6.924h.01zm.116 34.279s-1.614 2.731-2.619 3.783c-1.005 1.053-2.805 2.905-5.026 3.832-2.221.927-3.386 1.1-5.582.902-2.194-.2-4.232-1.402-4.946-1.903-.715-.502-2.54-1.978-3.573-3.356s-2.646-4.132-2.646-4.132.898 2.76 1.462 3.932c.323.675 1.318 2.738 2.731 4.532 1.318 1.674 3.877 4.558 7.766 5.208 3.888.652 6.56-1.001 7.222-1.401.66-.4 2.054-1.505 2.938-2.4.92-.93 1.792-2.12 2.274-2.834.353-.522.928-1.578.928-1.578l-.929-4.581v-.004z" fill="#FFF" fill-rule="nonzero"/><path d="M218.732 227.289h3.835l-1.887-5.948-1.948 5.948zm.195-9.403h3.568L227.848 233h-3.425l-.974-3.107h-5.568L216.835 233h-3.302l5.394-15.114zm17.278 7.947a2.593 2.593 0 0 0-.42-1.128c-.329-.452-.838-.677-1.529-.677-.984 0-1.657.489-2.02 1.466-.191.52-.287 1.21-.287 2.071 0 .82.096 1.48.287 1.98.349.93 1.005 1.394 1.97 1.394.683 0 1.168-.185 1.455-.554.287-.369.462-.847.523-1.435h2.984c-.068.888-.39 1.73-.964 2.522-.916 1.278-2.273 1.918-4.07 1.918-1.799 0-3.121-.534-3.969-1.6-.848-1.066-1.271-2.45-1.271-4.153 0-1.92.468-3.414 1.404-4.48.937-1.067 2.229-1.6 3.876-1.6 1.402 0 2.548.314 3.44.943.893.629 1.42 1.74 1.585 3.333h-2.994zm11.679 0a2.593 2.593 0 0 0-.42-1.128c-.329-.452-.838-.677-1.528-.677-.985 0-1.658.489-2.02 1.466-.192.52-.288 1.21-.288 2.071 0 .82.096 1.48.288 1.98.348.93 1.004 1.394 1.968 1.394.684 0 1.17-.185 1.456-.554.287-.369.462-.847.523-1.435h2.984c-.068.888-.39 1.73-.964 2.522-.916 1.278-2.273 1.918-4.07 1.918-1.798 0-3.121-.534-3.969-1.6-.847-1.066-1.271-2.45-1.271-4.153 0-1.92.468-3.414 1.405-4.48.936-1.067 2.228-1.6 3.876-1.6 1.4 0 2.548.314 3.44.943.892.629 1.42 1.74 1.584 3.333h-2.994zm9.413-1.897c-.677 0-1.202.211-1.574.635-.373.424-.607.998-.702 1.723h4.542c-.048-.773-.282-1.359-.702-1.759-.42-.4-.942-.6-1.564-.6zm0-2.41c.93 0 1.767.174 2.512.523.745.348 1.36.899 1.846 1.65.437.664.721 1.433.85 2.308.076.513.107 1.25.093 2.215h-7.65c.042 1.12.394 1.907 1.057 2.358.403.28.889.42 1.456.42.602 0 1.09-.17 1.466-.512.205-.185.386-.441.544-.77h2.984c-.076.664-.42 1.337-1.036 2.02-.957 1.088-2.297 1.631-4.02 1.631a5.668 5.668 0 0 1-3.763-1.374c-1.087-.916-1.63-2.406-1.63-4.47 0-1.935.49-3.419 1.471-4.45.981-1.033 2.254-1.55 3.82-1.55zm9.546 7.906c.062.52.195.888.4 1.107.362.39 1.032.585 2.01.585.574 0 1.03-.086 1.369-.257.338-.17.507-.427.507-.769a.83.83 0 0 0-.41-.748c-.273-.171-1.288-.465-3.045-.882-1.265-.315-2.157-.708-2.676-1.18-.52-.464-.78-1.134-.78-2.01 0-1.031.405-1.918 1.215-2.66.81-.742 1.95-1.113 3.42-1.113 1.395 0 2.531.279 3.41.836.878.557 1.382 1.52 1.512 2.887h-2.922c-.041-.376-.147-.674-.318-.893-.322-.396-.868-.594-1.641-.594-.636 0-1.089.099-1.359.297-.27.198-.405.43-.405.697 0 .335.144.578.431.728.287.158 1.302.428 3.045.81 1.163.274 2.034.687 2.615 1.241.574.56.862 1.261.862 2.102 0 1.108-.412 2.012-1.236 2.712-.824.701-2.097 1.051-3.82 1.051-1.757 0-3.054-.37-3.891-1.112-.837-.742-1.256-1.687-1.256-2.835h2.963zm11.68 0c.061.52.194.888.4 1.107.362.39 1.032.585 2.01.585.573 0 1.03-.086 1.368-.257.338-.17.508-.427.508-.769a.83.83 0 0 0-.41-.748c-.274-.171-1.29-.465-3.046-.882-1.265-.315-2.157-.708-2.676-1.18-.52-.464-.78-1.134-.78-2.01 0-1.031.405-1.918 1.216-2.66.81-.742 1.95-1.113 3.42-1.113 1.394 0 2.53.279 3.409.836.878.557 1.382 1.52 1.512 2.887h-2.922c-.041-.376-.147-.674-.318-.893-.321-.396-.868-.594-1.64-.594-.637 0-1.09.099-1.36.297-.27.198-.404.43-.404.697 0 .335.143.578.43.728.287.158 1.302.428 3.046.81 1.162.274 2.033.687 2.614 1.241.575.56.862 1.261.862 2.102 0 1.108-.412 2.012-1.236 2.712-.824.701-2.097 1.051-3.82 1.051-1.756 0-3.053-.37-3.89-1.112-.838-.742-1.257-1.687-1.257-2.835h2.963zm12.407-8.942h-2.964v-2.697h2.964v2.697zm-2.964 1.333h2.964V233h-2.964v-11.177zm11.833-.246c1.47 0 2.62.53 3.45 1.59.831 1.06 1.247 2.426 1.247 4.101 0 1.736-.41 3.175-1.23 4.317-.821 1.142-1.966 1.712-3.436 1.712-.923 0-1.664-.184-2.225-.553-.335-.22-.697-.602-1.087-1.149V233h-2.86v-15.094h2.911v5.373c.37-.52.776-.916 1.22-1.19.527-.341 1.197-.512 2.01-.512zm-.748 9.31c.752 0 1.336-.304 1.753-.912.417-.608.626-1.408.626-2.4 0-.792-.103-1.449-.308-1.968-.39-.984-1.107-1.477-2.153-1.477-1.06 0-1.788.482-2.184 1.446-.205.513-.308 1.176-.308 1.99 0 .956.212 1.75.636 2.378.424.63 1.07.944 1.938.944zM309.57 233h-2.922v-15.114h2.922V233zm7.26-9.064c-.677 0-1.201.211-1.574.635-.372.424-.607.998-.702 1.723h4.542c-.048-.773-.282-1.359-.702-1.759-.42-.4-.942-.6-1.564-.6zm0-2.41c.93 0 1.767.174 2.512.523.745.348 1.36.899 1.846 1.65.437.664.721 1.433.851 2.308.075.513.106 1.25.092 2.215h-7.65c.042 1.12.394 1.907 1.057 2.358.403.28.889.42 1.456.42.602 0 1.09-.17 1.466-.512.206-.185.387-.441.544-.77h2.984c-.075.664-.42 1.337-1.036 2.02-.957 1.088-2.297 1.631-4.02 1.631a5.668 5.668 0 0 1-3.763-1.374c-1.087-.916-1.63-2.406-1.63-4.47 0-1.935.49-3.419 1.471-4.45.981-1.033 2.255-1.55 3.82-1.55zm16.499-1.015v4.06h3.578c.711 0 1.244-.082 1.6-.246.629-.287.943-.854.943-1.702 0-.916-.304-1.531-.912-1.846-.342-.177-.855-.266-1.539-.266h-3.67zm4.327-2.625c1.06.02 1.874.15 2.445.39a3.82 3.82 0 0 1 1.451 1.056c.328.382.588.806.78 1.271.19.465.287.995.287 1.59 0 .717-.182 1.423-.544 2.117-.362.694-.96 1.184-1.794 1.471.697.28 1.19.679 1.481 1.195.291.516.436 1.304.436 2.363v1.015c0 .69.028 1.16.082 1.405.082.39.274.677.574.862V233h-3.476a10.842 10.842 0 0 1-.205-.81 7.443 7.443 0 0 1-.133-1.302l-.02-1.405c-.014-.964-.19-1.607-.529-1.928-.338-.321-.972-.482-1.902-.482h-3.26V233h-3.087v-15.114h7.414zm10.448 2.604h-2.963v-2.697h2.963v2.697zm-2.963 1.333h2.963V233h-2.963v-11.177zm12.469 4.01a2.593 2.593 0 0 0-.42-1.128c-.329-.452-.838-.677-1.528-.677-.985 0-1.658.489-2.02 1.466-.192.52-.288 1.21-.288 2.071 0 .82.096 1.48.288 1.98.348.93 1.004 1.394 1.968 1.394.684 0 1.17-.185 1.456-.554.287-.369.462-.847.523-1.435h2.984c-.068.888-.39 1.73-.964 2.522-.916 1.278-2.273 1.918-4.07 1.918-1.798 0-3.121-.534-3.969-1.6-.847-1.066-1.271-2.45-1.271-4.153 0-1.92.468-3.414 1.405-4.48.936-1.067 2.228-1.6 3.876-1.6 1.4 0 2.548.314 3.44.943.892.629 1.42 1.74 1.584 3.333h-2.994zm11.166-4.297c.69 0 1.318.12 1.882.359a3.29 3.29 0 0 1 1.39 1.097c.307.417.495.846.563 1.287.069.441.103 1.16.103 2.159V233h-2.984v-6.798c0-.602-.103-1.087-.308-1.456-.266-.52-.772-.78-1.517-.78-.773 0-1.359.258-1.759.774-.4.517-.6 1.253-.6 2.21V233h-2.912v-15.063h2.912v5.342c.424-.65.915-1.102 1.472-1.358a4.159 4.159 0 0 1 1.758-.385zM384.404 233h-3.137v-15.114h3.137V233zm8.9-11.443c1.156 0 2.101.302 2.836.907.735.605 1.102 1.608 1.102 3.01V233h-2.994v-6.798c0-.588-.079-1.04-.236-1.354-.287-.574-.834-.861-1.64-.861-.992 0-1.672.42-2.04 1.261-.192.444-.288 1.012-.288 1.702V233h-2.912v-11.156h2.82v1.63c.376-.574.731-.988 1.066-1.24.602-.452 1.364-.677 2.287-.677zm5.487 2.45v-2.081h1.558v-3.117h2.892v3.117h1.815v2.081h-1.815v5.907c0 .458.058.743.174.856.116.113.472.169 1.066.169a8.2 8.2 0 0 0 .575-.02v2.184l-1.385.05c-1.38.049-2.324-.19-2.83-.717-.328-.335-.492-.851-.492-1.548v-6.88h-1.558zm12.55-.071c-.676 0-1.201.211-1.574.635-.372.424-.606.998-.702 1.723h4.542c-.047-.773-.282-1.359-.702-1.759-.42-.4-.942-.6-1.564-.6zm0-2.41c.93 0 1.767.174 2.513.523.745.348 1.36.899 1.845 1.65.438.664.721 1.433.851 2.308.075.513.106 1.25.093 2.215h-7.65c.041 1.12.393 1.907 1.056 2.358.404.28.889.42 1.456.42.602 0 1.09-.17 1.467-.512.205-.185.386-.441.543-.77h2.984c-.075.664-.42 1.337-1.036 2.02-.957 1.088-2.296 1.631-4.02 1.631a5.668 5.668 0 0 1-3.762-1.374c-1.087-.916-1.63-2.406-1.63-4.47 0-1.935.49-3.419 1.47-4.45.982-1.033 2.255-1.55 3.82-1.55zm13.34.03c.055 0 .101.002.14.006l.25.015v2.994a7.927 7.927 0 0 0-.84-.051c-1.176 0-1.966.383-2.37 1.148-.225.431-.338 1.094-.338 1.99V233h-2.942v-11.177h2.789v1.948c.45-.745.844-1.254 1.179-1.527.547-.458 1.258-.687 2.133-.687zm8.296 0c1.155 0 2.1.303 2.835.908.735.605 1.103 1.608 1.103 3.01V233h-2.995v-6.798c0-.588-.078-1.04-.235-1.354-.288-.574-.834-.861-1.641-.861-.991 0-1.671.42-2.04 1.261-.192.444-.288 1.012-.288 1.702V233h-2.912v-11.156h2.82v1.63c.376-.574.731-.988 1.066-1.24.602-.452 1.364-.677 2.287-.677zm11.044 2.38c-.677 0-1.202.211-1.574.635-.373.424-.607.998-.703 1.723h4.543c-.048-.773-.282-1.359-.703-1.759-.42-.4-.941-.6-1.563-.6zm0-2.41c.93 0 1.767.174 2.512.523.745.348 1.36.899 1.845 1.65.438.664.722 1.433.851 2.308.076.513.106 1.25.093 2.215h-7.65c.041 1.12.393 1.907 1.057 2.358.403.28.888.42 1.456.42.601 0 1.09-.17 1.466-.512.205-.185.386-.441.543-.77h2.984c-.075.664-.42 1.337-1.035 2.02-.957 1.088-2.297 1.631-4.02 1.631a5.668 5.668 0 0 1-3.763-1.374c-1.087-.916-1.63-2.406-1.63-4.47 0-1.935.49-3.419 1.47-4.45.982-1.033 2.255-1.55 3.82-1.55zm6.121 2.481v-2.081h1.559v-3.117h2.891v3.117h1.815v2.081h-1.815v5.907c0 .458.058.743.175.856.116.113.471.169 1.066.169a8.2 8.2 0 0 0 .574-.02v2.184l-1.384.05c-1.38.049-2.324-.19-2.83-.717-.328-.335-.492-.851-.492-1.548v-6.88h-1.559zm18.344 3.282h3.835l-1.886-5.948-1.949 5.948zm.195-9.403h3.569L477.602 233h-3.425l-.974-3.107h-5.568L466.59 233h-3.301l5.393-15.114zm18.303 9.526c0-.862-.196-1.624-.59-2.287-.392-.663-1.03-.995-1.912-.995-1.06 0-1.787.503-2.184 1.508-.205.533-.307 1.21-.307 2.03 0 1.299.345 2.211 1.035 2.738.41.307.896.461 1.456.461.814 0 1.434-.314 1.862-.943.427-.63.64-1.466.64-2.512zm-1.66-5.835c1.305 0 2.41.482 3.316 1.446.906.964 1.359 2.379 1.359 4.245 0 1.969-.443 3.47-1.328 4.502-.885 1.032-2.025 1.548-3.42 1.548-.888 0-1.626-.222-2.214-.667-.322-.246-.636-.605-.944-1.076v5.824h-2.891v-15.576H482v1.651c.314-.485.65-.868 1.005-1.148.65-.5 1.422-.749 2.317-.749zm14.488 5.835c0-.862-.197-1.624-.59-2.287-.393-.663-1.03-.995-1.912-.995-1.06 0-1.788.503-2.184 1.508-.205.533-.308 1.21-.308 2.03 0 1.299.346 2.211 1.036 2.738.41.307.896.461 1.456.461.814 0 1.434-.314 1.861-.943.427-.63.641-1.466.641-2.512zm-1.661-5.835c1.306 0 2.411.482 3.317 1.446.906.964 1.359 2.379 1.359 4.245 0 1.969-.443 3.47-1.328 4.502-.885 1.032-2.025 1.548-3.42 1.548-.889 0-1.627-.222-2.215-.667-.321-.246-.635-.605-.943-1.076v5.824h-2.892v-15.576h2.8v1.651c.314-.485.649-.868 1.004-1.148.65-.5 1.422-.749 2.318-.749zM507.923 233H505v-15.114h2.923V233zm5.855-12.51h-2.964v-2.697h2.964v2.697zm-2.964 1.333h2.964V233h-2.964v-11.177zm12.47 4.01a2.593 2.593 0 0 0-.421-1.128c-.328-.452-.838-.677-1.528-.677-.984 0-1.658.489-2.02 1.466-.191.52-.287 1.21-.287 2.071 0 .82.096 1.48.287 1.98.349.93 1.005 1.394 1.969 1.394.683 0 1.169-.185 1.456-.554.287-.369.461-.847.523-1.435h2.984c-.069.888-.39 1.73-.964 2.522-.916 1.278-2.273 1.918-4.071 1.918-1.798 0-3.12-.534-3.968-1.6-.848-1.066-1.272-2.45-1.272-4.153 0-1.92.468-3.414 1.405-4.48.936-1.067 2.228-1.6 3.876-1.6 1.401 0 2.548.314 3.44.943.892.629 1.42 1.74 1.584 3.333h-2.994zm11.166 1.732c-.185.117-.371.21-.56.282a4.673 4.673 0 0 1-.773.2l-.657.123c-.615.11-1.056.243-1.322.4-.451.267-.677.68-.677 1.241 0 .5.138.86.415 1.082.277.222.614.333 1.01.333.63 0 1.208-.184 1.738-.554.53-.369.805-1.042.826-2.02v-1.087zm-1.774-1.363c.54-.069.926-.154 1.158-.257.417-.177.626-.454.626-.83 0-.458-.159-.774-.477-.949-.318-.174-.784-.261-1.4-.261-.69 0-1.179.17-1.466.512-.205.253-.342.595-.41 1.026h-2.82c.062-.978.335-1.78.82-2.41.773-.984 2.1-1.476 3.979-1.476 1.224 0 2.31.242 3.26.728.951.485 1.426 1.401 1.426 2.748v5.127c0 .355.007.786.02 1.292.021.382.08.642.175.779.096.137.24.25.43.338V233h-3.178a3.255 3.255 0 0 1-.185-.636 7.665 7.665 0 0 1-.082-.677 6 6 0 0 1-1.394 1.118c-.63.362-1.34.544-2.133.544-1.012 0-1.848-.29-2.507-.867-.66-.577-.99-1.396-.99-2.456 0-1.374.53-2.368 1.59-2.984.58-.334 1.435-.574 2.563-.717l.995-.123zm6.142-2.195v-2.081h1.558v-3.117h2.892v3.117h1.815v2.081h-1.815v5.907c0 .458.058.743.174.856.117.113.472.169 1.067.169a8.2 8.2 0 0 0 .574-.02v2.184l-1.384.05c-1.381.049-2.324-.19-2.83-.717-.328-.335-.493-.851-.493-1.548v-6.88h-1.558zm11.146-3.517H547v-2.697h2.964v2.697zM547 221.823h2.964V233H547v-11.177zm10.808 9.116c.855 0 1.51-.304 1.969-.913.458-.608.687-1.473.687-2.594 0-1.121-.23-1.984-.687-2.589-.458-.605-1.114-.907-1.969-.907-.854 0-1.512.302-1.974.907-.461.605-.692 1.468-.692 2.59 0 1.12.23 1.985.692 2.593.462.609 1.12.913 1.974.913zm5.722-3.507c0 1.64-.472 3.044-1.415 4.21-.944 1.165-2.376 1.748-4.297 1.748-1.92 0-3.353-.583-4.296-1.749-.943-1.165-1.415-2.568-1.415-4.209 0-1.613.472-3.011 1.415-4.194.943-1.182 2.375-1.774 4.296-1.774 1.921 0 3.353.592 4.297 1.774.943 1.183 1.415 2.58 1.415 4.194zm8.285-5.875c1.155 0 2.1.302 2.835.907.735.605 1.102 1.608 1.102 3.01V233h-2.994v-6.798c0-.588-.078-1.04-.236-1.354-.287-.574-.834-.861-1.64-.861-.991 0-1.672.42-2.04 1.261-.192.444-.288 1.012-.288 1.702V233h-2.912v-11.156h2.82v1.63c.376-.574.731-.988 1.066-1.24.602-.452 1.364-.677 2.287-.677zm8.91 7.875c.062.52.195.888.4 1.107.363.39 1.033.585 2.01.585.574 0 1.03-.086 1.37-.257.338-.17.507-.427.507-.769a.83.83 0 0 0-.41-.748c-.274-.171-1.289-.465-3.046-.882-1.265-.315-2.157-.708-2.676-1.18-.52-.464-.78-1.134-.78-2.01 0-1.031.406-1.918 1.216-2.66.81-.742 1.95-1.113 3.42-1.113 1.394 0 2.53.279 3.409.836.878.557 1.382 1.52 1.512 2.887h-2.922c-.041-.376-.147-.674-.318-.893-.321-.396-.868-.594-1.64-.594-.636 0-1.09.099-1.36.297-.27.198-.404.43-.404.697 0 .335.143.578.43.728.287.158 1.303.428 3.046.81 1.162.274 2.033.687 2.615 1.241.574.56.86 1.261.86 2.102 0 1.108-.411 2.012-1.235 2.712-.823.701-2.097 1.051-3.82 1.051-1.756 0-3.053-.37-3.89-1.112-.838-.742-1.257-1.687-1.257-2.835h2.964zm-353.605-82.73l7.712 33.381 1.661 9.294 1.7-9.096 6.566-33.579h12.854l6.922 33.381 1.78 9.294 1.78-8.938 7.79-33.737h12.38L271.852 205h-11.628l-7.04-34.093-2.057-11.272-2.057 11.272L242.03 205h-11.31l-16.532-58.298h12.933zm84.44 36.268h14.793l-7.278-22.94-7.514 22.94zm.752-36.268h13.764L346.72 205h-13.21l-3.757-11.984h-21.476L304.244 205h-12.736l20.804-58.298zM365.271 205h-12.103v-58.298h12.103V205zm7.04-27.923h22.702v10.679H372.31v-10.679zm47.223 5.893h14.792l-7.277-22.94-7.515 22.94zm.752-36.268h13.763L454.695 205h-13.21l-3.757-11.984H416.25L412.217 205h-12.735l20.804-58.298zm53.986 10.125v15.662h13.804c2.742 0 4.799-.316 6.17-.949 2.425-1.107 3.638-3.296 3.638-6.565 0-3.534-1.173-5.907-3.52-7.12-1.318-.685-3.296-1.028-5.932-1.028h-14.16zm16.69-10.125c4.088.08 7.232.58 9.434 1.503a14.737 14.737 0 0 1 5.596 4.074 18.05 18.05 0 0 1 3.006 4.904c.738 1.793 1.107 3.837 1.107 6.13 0 2.769-.698 5.491-2.096 8.168-1.397 2.676-3.704 4.568-6.921 5.675 2.69 1.081 4.594 2.617 5.715 4.608 1.12 1.99 1.68 5.03 1.68 9.116v3.916c0 2.663.106 4.47.317 5.418.317 1.503 1.055 2.61 2.215 3.323V205h-13.408c-.369-1.292-.632-2.333-.79-3.125a28.707 28.707 0 0 1-.515-5.022l-.079-5.419c-.053-3.718-.732-6.196-2.037-7.435-1.305-1.24-3.75-1.86-7.336-1.86h-12.578V205h-11.904v-58.298h28.595zM531.74 205h-12.103v-58.298h12.103V205zm27.29-22.03h14.792l-7.278-22.94-7.514 22.94zm.751-36.268h13.764L594.19 205h-13.21l-3.757-11.984h-21.476L551.713 205h-12.735l20.803-58.298z" fill="#005A9C"/></g></svg>